<?xml version="1.0" encoding="utf-8"?>
<!-- Generator: Adobe Illustrator 21.1.0, SVG Export Plug-In . SVG Version: 6.00 Build 0)  -->
<svg version="1.1" id="Layer_1" xmlns="http://www.w3.org/2000/svg" xmlns:xlink="http://www.w3.org/1999/xlink" x="0px" y="0px"
	 viewBox="0 0 800 800" style="enable-background:new 0 0 800 800;" xml:space="preserve">
<style type="text/css">
	.st0{fill:#FCFAFA;}
</style>
<g id="SVGRepo_bgCarrier">
</g>
<g id="SVGRepo_tracerCarrier">
</g>
<g id="SVGRepo_bgCarrier_1_">
</g>
<g id="SVGRepo_tracerCarrier_1_">
</g>
<g id="SVGRepo_iconCarrier_1_">
	<path class="st0" d="M789.7,400c0,220.9-174.2,400-389,400s-389-179.1-389-400S185.9,0,400.7,0S789.7,179.1,789.7,400z
		 M311.6,412.8L125.1,271.4v264.3L311.6,412.8z M173.3,258.3l182,138c27.2,18.3,62.4,18.3,89.7,0l182-138H173.3z M612.4,542
		L453.9,437.4c-34,16.8-73.5,16.8-107.5,0L187.8,541.9L612.4,542z M675.2,271.4L488.7,412.8l186.5,123V271.4z"/>
</g>
</svg>
