<?xml version="1.0" encoding="utf-8"?>
<!-- Generator: Adobe Illustrator 21.1.0, SVG Export Plug-In . SVG Version: 6.00 Build 0)  -->
<svg version="1.1" id="Layer_1" xmlns="http://www.w3.org/2000/svg" xmlns:xlink="http://www.w3.org/1999/xlink" x="0px" y="0px"
	 viewBox="0 0 800 800" style="enable-background:new 0 0 800 800;" xml:space="preserve">
<style type="text/css">
	.st0{fill:#FFFFFF;}
</style>
<path class="st0" d="M799,398c-0.9-76-23.6-150.2-65.2-213.8S633.1,70.3,563.8,39.1C494.4,7.9,417.7-2.8,342.4,8.2
	c-75.2,11-145.7,43.3-203.2,93C81.7,150.9,39.6,216,17.9,288.9c-21.7,72.8-22.2,150.4-1.3,223.5s62.2,138.7,119.1,189.1
	c56.9,50.4,127,83.5,202.1,95.4V514.2h-99.7V398h99.7v-88.3c-2.3-20.5-0.1-41.3,6.5-60.9s17.4-37.4,31.7-52.4
	c14.3-14.9,31.6-26.5,50.9-34c19.2-7.5,39.9-10.7,60.5-9.3c29.9,0.4,59.7,3.1,89.3,8v99.7h-49.9c-8.6-1.1-17.3-0.2-25.5,2.5
	c-8.2,2.7-15.7,7.3-21.9,13.3c-6.2,6-11,13.4-14,21.5c-3,8.1-4.1,16.8-3.3,25.5V399h110.7l-17.9,116.2h-92.2v279.2
	c94.2-14.9,180-63.1,241.8-135.8S799.6,493.4,799,398z"/>
</svg>
