<?xml version="1.0" encoding="utf-8"?>
<!-- Generator: Adobe Illustrator 21.1.0, SVG Export Plug-In . SVG Version: 6.00 Build 0)  -->
<svg version="1.1" id="Layer_1" xmlns="http://www.w3.org/2000/svg" xmlns:xlink="http://www.w3.org/1999/xlink" x="0px" y="0px"
	 viewBox="0 0 786 786" style="enable-background:new 0 0 786 786;" xml:space="preserve">
<style type="text/css">
	.st0{fill:#F7F5F5;}
</style>
<title>icn-x</title>
<path class="st0" d="M393,0C176,0,0,175.9,0,393s175.9,393,393,393s393-175.9,393-393S610,0,393,0z M654.7,658
	c-48.4,0-96.9,0-145.4,0.1c-2.1,0.2-4.1-0.8-5.1-2.6c-27.8-40.6-55.6-81.1-83.4-121.7c-17.5-25.5-35-51-52.5-76.5
	c-0.3-0.4-0.6-0.7-1.1-1.3l-15,17.4L234.9,609.7c-13.2,15.3-26.4,30.7-39.5,46.1c-1.1,1.5-3,2.3-4.8,2.2c-13.8-0.1-27.5,0-42,0
	l198.8-231.2L148.7,137.5c1.1-0.1,1.9-0.2,2.7-0.2c48.7,0,97.5,0,146.2-0.1c2.2,0,3.2,1,4.3,2.5c15.6,22.8,31.2,45.5,46.8,68.3
	l77,112.2c1.9,2.7,3.8,5.5,5.8,8.5c3.9-4.5,7.7-8.8,11.4-13.1l123.6-143.8c9.3-10.9,18.6-21.8,28-32.5c0.9-1,2.1-1.7,3.5-1.8
	c13.7-0.1,27.3-0.1,41-0.1c0.4,0,0.9,0.1,1.9,0.1L451.6,357.8L657.7,658H654.7z"/>
<path class="st0" d="M209.8,171.1c22.9,0,45.1,0,67.4,0.1c1,0,2.3,1.1,3,2.1c14.2,20.2,28.4,40.5,42.5,60.8
	c30.2,43.3,60.5,86.6,90.7,129.8c30.2,43.3,60.5,86.7,90.8,130.1c30,43,60,85.9,90.1,128.9c0.5,0.7,0.9,1.4,1.8,2.7H593
	c-21,0-42,0-63.1,0c-1.7,0.2-3.3-0.7-4.2-2.1c-35.1-50.4-70.3-100.7-105.4-151L286.4,281l-75.5-108
	C210.6,172.5,210.4,172,209.8,171.1z"/>
</svg>
