<?xml version="1.0" encoding="UTF-8"?>
<svg id="Layer_1" xmlns="http://www.w3.org/2000/svg" version="1.1" viewBox="0 0 2080.13 315.04">
  <!-- Generator: Adobe Illustrator 29.8.4, SVG Export Plug-In . SVG Version: 2.1.1 Build 6)  -->
  <defs>
    <style>
      .st0 {
        fill: #fffdfd;
      }
    </style>
  </defs>
  <path class="st0" d="M796.1,289.04h-8.57c-15.96,0-31.83-.36-47.79.18-7.12.27-11.27-1.98-15.06-8.2-25.88-42.29-52.11-84.3-78.26-126.32-1.89-3.16-4.15-6.13-6.76-8.66-2.07,23.62-1.26,47.06-1.44,70.51-.18,23.71,0,47.43,0,72.13-22.63.99-44.63.27-67.26.45V35.5c3.61-.18,6.76-.54,10.01-.54,15.6-.09,31.29.36,46.88-.18,7.75-.27,12.44,2.07,16.68,8.84,25.52,40.39,51.57,80.33,77.45,120.46,1.71,2.7,3.61,5.23,6.49,9.29,2.34-10.55.99-19.38,1.26-28.13.27-9.02.09-18.03.09-27.05V35.14c22.81-.27,44.54-.18,66-.09,2.7,7.57,2.98,244.61.27,253.99h0Z"/>
  <path class="st0" d="M276.86,162.36c0-55,35.61-109.73,93.95-126.5,70.42-20.38,143.9,24.34,159.32,96.56,13.61,63.65-18.48,126.68-76.73,150.75-70.87,29.39-152.19-11.9-171.22-87.28-2.7-10.91-3.52-22.36-5.32-33.54h0ZM470.17,161.82c0-36.52-28.67-66-64.38-66.27-35.43-.27-64.83,29.57-64.92,65.91-.09,36.79,29.3,67.08,65.01,66.9,35.43-.27,64.2-30.02,64.29-66.54Z"/>
  <path class="st0" d="M1440.76,30.99c62.03,0,115.86,44.81,126.14,105.13,8.75,51.12-5.77,94.85-45.98,128.21-54.1,44.81-133.44,35.79-177.71-19.02-57.88-71.59-26.24-180.87,60.41-208.46,12.08-3.79,24.61-5.77,37.15-5.86h-.01ZM1506.49,162.27c.09-36.88-29.21-66.99-65.01-66.72s-64.29,29.66-64.29,66.36,28.94,66.27,64.38,66.45c35.25.09,64.83-29.93,64.92-66.09h0Z"/>
  <path class="st0" d="M1148.91,89.14v199.35h-66.45c-1.8-6.49-2.52-237.67-.63-252.82,2.61-.18,5.5-.63,8.39-.63,38.14,0,76.28-.27,114.42,0,50.94.36,87.37,43.46,80.06,93.95-3.61,25.25-15.51,45.08-36.88,59.15-.99.63-1.89,1.44-3.88,2.89,8.57,15.96,17.13,31.92,25.79,47.97s17.31,32.1,26.96,49.86c-25.07.18-48.51.09-72.94.09l-67.89-136.24c9.38,0,17.13.18,24.88-.09,4.51,0,8.93-.54,13.34-1.62,18.21-5.05,27.59-21.46,23.08-39.76-3.07-12.62-12.35-21.28-25.34-21.91-13.7-.63-27.59-.18-42.92-.18h0Z"/>
  <path class="st0" d="M1990.12,288.4l-57.07-165.63-2.25-.09c-10.01,27.41-19.2,55.09-28.76,82.68-9.65,27.68-19.2,55.45-28.85,83.31h-64.29c-.27-.45-.45-.63-.63-.9s-.36-.54-.27-.81c.45-1.71.9-3.43,1.53-5.14,32.19-81.15,64.38-162.38,96.65-243.8h53.47l96.83,249.21c-7.39,2.16-47.79,2.8-66.36,1.17Z"/>
  <path class="st0" d="M1038.01,92.84h-64.56v195.56h-67.44c-.27-3.79-.72-7.57-.72-11.36-.09-57.34-.09-114.78-.09-172.12,0-3.79-.36-7.66-.63-12.08h-63.47c-1.98-7.48-2.25-48.33-.45-56.8,7.3-1.89,188.53-2.07,197.37,0v56.8h-.01Z"/>
  <path class="st0" d="M1605.67,35.41h66.09c.27,4.06.72,7.75.72,11.54.09,56.44.09,112.88,0,169.33v12.62c4.24.36,7.66.81,11.09.81,25.25.09,50.49.09,75.65,0h11.18v58.7h-164.55c-1.8-7.03-2.16-242.63-.18-253h0Z"/>
  <path class="st0" d="M109.7,146.13l31.29-39.22c17.58-22.09,35.25-44.09,52.75-66.18,2.98-3.79,6.04-5.95,11.18-5.86,21.28.27,42.65.09,63.93.18,1.71,0,3.34.36,6.58.72l-86.01,110.81,94.58,142.01c-3.7.27-5.68.45-7.66.45-22.54,0-45.08-.09-67.62.09-4.6,0-7.75-1.08-10.37-5.23-28.67-44.36-57.43-88.72-86.29-132.99-.63-1.26-1.17-2.61-2.34-4.78h-.02Z"/>
  <path class="st0" d="M28.28,35.59h66.81v252.82H28.28V35.59Z"/>
</svg>