<?xml version="1.0" encoding="utf-8"?>
<!-- Generator: Adobe Illustrator 21.1.0, SVG Export Plug-In . SVG Version: 6.00 Build 0)  -->
<svg version="1.1" id="Layer_1" xmlns="http://www.w3.org/2000/svg" xmlns:xlink="http://www.w3.org/1999/xlink" x="0px" y="0px"
	 viewBox="0 0 347 299" style="enable-background:new 0 0 347 299;" xml:space="preserve">
<style type="text/css">
	.st0{fill:#FFFDFD;}
</style>
<g>
	<path class="st0" d="M134.3,125.4H133c-2.5,0-5-0.1-7.5,0c-1.1,0-1.8-0.3-2.3-1.3c-4-6.6-8.1-13.2-12.2-19.7
		c-0.3-0.5-0.6-1-1.1-1.4c-0.3,3.7-0.2,7.3-0.2,11c0,3.7,0,7.4,0,11.3c-3.5,0.2-7,0-10.5,0.1V85.8c0.6,0,1.1-0.1,1.6-0.1
		c2.4,0,4.9,0.1,7.3,0c1.2,0,1.9,0.3,2.6,1.4c4,6.3,8,12.5,12.1,18.8c0.3,0.4,0.6,0.8,1,1.4c0.4-1.6,0.2-3,0.2-4.4
		c0-1.4,0-2.8,0-4.2v-13c3.6,0,7,0,10.3,0C134.7,86.9,134.7,123.9,134.3,125.4z"/>
	<path class="st0" d="M53.3,105.6c0-8.6,5.6-17.1,14.7-19.7c11-3.2,22.5,3.8,24.9,15.1c2.1,9.9-2.9,19.8-12,23.5
		c-11.1,4.6-23.8-1.9-26.7-13.6C53.7,109.1,53.6,107.3,53.3,105.6z M83.5,105.5c0-5.7-4.5-10.3-10-10.3c-5.5,0-10.1,4.6-10.1,10.3
		c0,5.7,4.6,10.5,10.1,10.4C78.9,115.8,83.4,111.2,83.5,105.5z"/>
	<path class="st0" d="M234.9,85.1c9.7,0,18.1,7,19.7,16.4c1.4,8-0.9,14.8-7.2,20c-8.4,7-20.8,5.6-27.7-3c-9-11.2-4.1-28.2,9.4-32.5
		C231,85.4,233,85.1,234.9,85.1z M245.2,105.6c0-5.8-4.6-10.5-10.1-10.4c-5.6,0-10,4.6-10,10.4c0,5.7,4.5,10.3,10,10.4
		C240.5,115.9,245.2,111.2,245.2,105.6L245.2,105.6z"/>
	<path class="st0" d="M189.4,94.2v31.1H179c-0.3-1-0.4-37.1-0.1-39.5c0.4,0,0.9-0.1,1.3-0.1c6,0,11.9,0,17.9,0
		c7.9,0.1,13.6,6.8,12.5,14.7c-0.6,3.9-2.4,7-5.8,9.2c-0.2,0.1-0.3,0.2-0.6,0.5c1.3,2.5,2.7,5,4,7.5c1.4,2.5,2.7,5,4.2,7.8
		c-3.9,0-7.6,0-11.4,0l-10.6-21.3c1.5,0,2.7,0,3.9,0c0.7,0,1.4-0.1,2.1-0.3c2.8-0.8,4.3-3.3,3.6-6.2c-0.5-2-1.9-3.3-4-3.4
		C193.9,94.1,191.8,94.2,189.4,94.2z"/>
	<path class="st0" d="M320.6,125.3l-8.9-25.8l-0.4,0c-1.6,4.3-3,8.6-4.5,12.9c-1.5,4.3-3,8.7-4.5,13h-10c0-0.1-0.1-0.1-0.1-0.1
		s-0.1-0.1,0-0.1c0.1-0.3,0.1-0.5,0.2-0.8c5-12.7,10-25.3,15.1-38h8.3l15.1,38.9C329.8,125.4,323.5,125.5,320.6,125.3z"/>
	<path class="st0" d="M172.1,94.7H162v30.5h-10.5c0-0.6-0.1-1.2-0.1-1.8c0-8.9,0-17.9,0-26.9c0-0.6-0.1-1.2-0.1-1.9h-9.9
		c-0.3-1.2-0.4-7.5-0.1-8.9c1.1-0.3,29.4-0.3,30.8,0V94.7z"/>
	<path class="st0" d="M260.6,85.8H271c0,0.6,0.1,1.2,0.1,1.8c0,8.8,0,17.6,0,26.4c0,0.6,0,1.2,0,2c0.7,0.1,1.2,0.1,1.7,0.1
		c3.9,0,7.9,0,11.8,0h1.7v9.2h-25.7C260.4,124.2,260.3,87.4,260.6,85.8z"/>
	<path class="st0" d="M27.2,103.1l4.9-6.1c2.7-3.4,5.5-6.9,8.2-10.3c0.5-0.6,0.9-0.9,1.7-0.9c3.3,0,6.7,0,10,0c0.3,0,0.5,0.1,1,0.1
		l-13.4,17.3l14.8,22.2c-0.6,0-0.9,0.1-1.2,0.1c-3.5,0-7,0-10.6,0c-0.7,0-1.2-0.2-1.6-0.8c-4.5-6.9-9-13.8-13.5-20.8
		C27.5,103.6,27.4,103.4,27.2,103.1z"/>
	<path class="st0" d="M14.5,85.8h10.4v39.5H14.5V85.8z"/>
	<path class="st0" d="M198.6,150.6c0-0.4-0.1-0.9-0.1-1.3c0-3.4,0-6.8,0-10.2c0-0.1,0-0.3,0-0.4c0.1-0.4-0.2-1.1,0.6-1.1
		c0.6,0,0.5,0.6,0.5,1c0,3.7,0,7.5,0,11.2C199.5,150.3,199.5,150.8,198.6,150.6z"/>
	<path class="st0" d="M115.8,150.9c-0.4-0.3-0.7-0.4-0.9-0.6c-0.1-0.2-0.1-0.5-0.1-0.7c0-3.6,0-7.3,0-10.9c0-0.4-0.2-1.1,0.5-1.1
		c0.8,0,0.5,0.7,0.5,1.2c0,2.7,0,5.4,0,8.1c0,0.8,0,1.7,0,2.5C115.9,149.8,115.8,150.2,115.8,150.9z"/>
	<path class="st0" d="M215.4,144.3c-0.1-1.4-0.2-3.1-0.2-4.4h0c-0.3,1.2-0.8,2.4-1.3,3.8l-1.8,4.9h-1l-1.6-4.8
		c-0.5-1.4-0.9-2.7-1.2-3.9h0c0,1.3-0.1,3-0.2,4.5l-0.3,4.3h-1.2l0.7-10.1h1.7l1.7,4.9c0.4,1.2,0.8,2.3,1,3.4h0
		c0.3-1,0.6-2.1,1.1-3.4l1.8-4.9h1.7l0.6,10.1h-1.3L215.4,144.3z"/>
	<path class="st0" d="M223,148.7l-0.1-0.9h0c-0.5,0.7-1.4,1.1-2.2,1.1c-1.5,0-2.2-1-2.2-2.1c0-1.8,1.6-2.7,4.4-2.7v-0.2
		c0-0.6-0.2-1.7-1.6-1.7c-0.7,0-1.3,0.2-1.9,0.5l-0.3-0.9c0.7-0.4,1.5-0.7,2.4-0.6c2.2,0,2.8,1.5,2.8,3v2.7c0,0.6,0,1.2,0.1,1.7
		L223,148.7z M222.8,145c-1.4,0-3.1,0.2-3.1,1.6c0,0.9,0.6,1.3,1.2,1.3c0.8,0,1.5-0.5,1.8-1.2c0-0.1,0.1-0.3,0.1-0.4V145z"/>
	<path class="st0" d="M226.2,143.4c0-0.7,0-1.4-0.1-2h1.2l0.1,1.2h0c0.5-0.9,1.4-1.4,2.4-1.4c1,0,2.6,0.6,2.6,3.1v4.3H231v-4.2
		c0-1.2-0.4-2.1-1.7-2.1c-0.8,0-1.5,0.6-1.8,1.3c-0.1,0.2-0.1,0.4-0.1,0.6v4.4h-1.3L226.2,143.4L226.2,143.4z"/>
	<path class="st0" d="M236,139.4v2.1h1.9v1H236v3.9c0,0.9,0.3,1.4,1,1.4c0.3,0,0.5,0,0.8-0.1l0.1,1c-0.4,0.1-0.8,0.2-1.2,0.2
		c-0.6,0-1.1-0.2-1.4-0.5c-0.4-0.4-0.5-1-0.5-1.9v-4h-1.1v-1h1.1v-1.7L236,139.4z"/>
	<path class="st0" d="M240,145.3c0,1.8,1.2,2.5,2.5,2.5c0.7,0,1.4-0.1,2-0.4l0.2,0.9c-0.5,0.2-1.3,0.5-2.4,0.5
		c-2.2,0-3.6-1.5-3.6-3.7c0-2.2,1.3-3.9,3.4-3.9c2.4,0,3,2.1,3,3.4c0,0.2,0,0.4,0,0.6L240,145.3L240,145.3z M243.9,144.4
		c0-0.8-0.3-2.1-1.8-2.1c-1.3,0-1.9,1.2-2,2.1H243.9z"/>
	<path class="st0" d="M246.8,143.4c0-0.7,0-1.4-0.1-2h1.2l0.1,1.2h0c0.5-0.9,1.4-1.4,2.4-1.4c1,0,2.6,0.6,2.6,3.1v4.3h-1.3v-4.2
		c0-1.2-0.4-2.1-1.7-2.1c-0.8,0-1.5,0.6-1.8,1.4c-0.1,0.2-0.1,0.4-0.1,0.6v4.4h-1.3L246.8,143.4z"/>
	<path class="st0" d="M256.6,139.4c0,0.5-0.3,0.8-0.8,0.8c-0.4,0-0.8-0.3-0.8-0.8c0,0,0,0,0,0c0-0.5,0.3-0.8,0.8-0.8c0,0,0,0,0,0
		C256.2,138.6,256.6,138.9,256.6,139.4C256.6,139.4,256.6,139.4,256.6,139.4z M255.1,148.7v-7.2h1.3v7.2H255.1z"/>
	<path class="st0" d="M258.6,143.4c0-0.7,0-1.4-0.1-2h1.2l0.1,1.2h0c0.4-0.7,1.1-1.3,2.3-1.3c0.9,0,1.8,0.6,2.1,1.4h0
		c0.2-0.4,0.5-0.7,0.8-0.9c0.5-0.4,1-0.5,1.6-0.5c1,0,2.4,0.6,2.4,3.2v4.3h-1.3v-4.1c0-1.4-0.5-2.2-1.6-2.2c-0.7,0-1.3,0.5-1.6,1.2
		c-0.1,0.2-0.1,0.4-0.1,0.7v4.5h-1.3v-4.3c0-1.2-0.5-2-1.5-2c-0.8,0-1.4,0.7-1.6,1.3c-0.1,0.2-0.1,0.4-0.1,0.6v4.4h-1.3L258.6,143.4
		L258.6,143.4z"/>
	<path class="st0" d="M272.6,139.4c0,0.5-0.3,0.8-0.8,0.8c-0.4,0-0.8-0.3-0.8-0.8c0,0,0,0,0,0c0-0.5,0.3-0.8,0.8-0.8c0,0,0,0,0,0
		C272.2,138.6,272.6,138.9,272.6,139.4C272.6,139.4,272.6,139.4,272.6,139.4z M271.1,148.7v-7.2h1.3v7.2H271.1z"/>
	<path class="st0" d="M275.3,145.3c0,1.8,1.2,2.5,2.5,2.5c0.7,0,1.4-0.1,2-0.4l0.2,0.9c-0.5,0.2-1.3,0.5-2.4,0.5
		c-2.2,0-3.6-1.5-3.6-3.7c0-2.2,1.3-3.9,3.4-3.9c2.4,0,3,2.1,3,3.4c0,0.2,0,0.4,0,0.6L275.3,145.3L275.3,145.3z M279.2,144.4
		c0-0.8-0.3-2.1-1.8-2.1c-1.3,0-1.9,1.2-2,2.1H279.2z"/>
	<path class="st0" d="M282.1,143.4c0-0.7,0-1.4-0.1-2h1.2l0.1,1.2h0c0.5-0.9,1.4-1.4,2.4-1.4c1,0,2.6,0.6,2.6,3.1v4.3h-1.3v-4.2
		c0-1.2-0.4-2.1-1.7-2.1c-0.8,0-1.5,0.6-1.8,1.4c-0.1,0.2-0.1,0.4-0.1,0.6v4.4h-1.3L282.1,143.4z"/>
	<path class="st0" d="M291.9,139.4v2.1h1.9v1h-1.9v3.9c0,0.9,0.3,1.4,1,1.4c0.3,0,0.5,0,0.8-0.1l0.1,1c-0.4,0.1-0.8,0.2-1.2,0.2
		c-0.6,0-1.1-0.2-1.4-0.5c-0.4-0.4-0.5-1-0.5-1.9v-4h-1.1v-1h1.1v-1.7L291.9,139.4z"/>
	<path class="st0" d="M301.8,145c0,2.7-1.9,3.9-3.6,3.9c-2,0-3.5-1.4-3.5-3.7c0-2.4,1.6-3.9,3.6-3.9
		C300.4,141.3,301.8,142.8,301.8,145z M296,145.1c0,1.6,0.9,2.8,2.2,2.8c1.3,0,2.2-1.2,2.2-2.8c0-1.2-0.6-2.8-2.2-2.8
		C296.7,142.3,296,143.7,296,145.1L296,145.1z"/>
	<path class="st0" d="M125.5,139.7h-3.1v-1.1h7.5v1.1h-3.1v9h-1.3L125.5,139.7L125.5,139.7z"/>
	<path class="st0" d="M130.6,145.3c0,1.8,1.2,2.5,2.5,2.5c0.7,0,1.4-0.1,2-0.4l0.2,0.9c-0.5,0.2-1.3,0.5-2.4,0.5
		c-2.2,0-3.6-1.5-3.6-3.7c0-2.2,1.3-3.9,3.4-3.9c2.4,0,3,2.1,3,3.4c0,0.2,0,0.4,0,0.6H130.6z M134.5,144.4c0-0.8-0.4-2.1-1.8-2.1
		c-1.3,0-1.9,1.2-2,2.1H134.5z"/>
	<path class="st0" d="M142.6,148.4c-0.7,0.3-1.4,0.4-2.1,0.4c-2.2,0-3.6-1.5-3.6-3.7s1.5-3.9,3.9-3.9c0.6,0,1.3,0.1,1.8,0.4l-0.3,1
		c-0.5-0.2-1-0.4-1.5-0.4c-1.7,0-2.6,1.2-2.6,2.7c0,1.7,1.1,2.7,2.5,2.7c0.6,0,1.1-0.1,1.6-0.4L142.6,148.4z"/>
	<path class="st0" d="M144.1,143.4c0-0.7,0-1.4-0.1-2h1.2l0.1,1.2h0c0.5-0.9,1.4-1.4,2.4-1.4c1,0,2.6,0.6,2.6,3.1v4.3H149v-4.2
		c0-1.2-0.4-2.1-1.7-2.1c-0.8,0-1.5,0.6-1.8,1.3c-0.1,0.2-0.1,0.4-0.1,0.6v4.4h-1.3L144.1,143.4z"/>
	<path class="st0" d="M159,145c0,2.7-1.9,3.9-3.6,3.9c-2,0-3.5-1.4-3.5-3.7c0-2.4,1.6-3.9,3.6-3.9C157.6,141.3,159,142.8,159,145z
		 M153.2,145.1c0,1.6,0.9,2.8,2.2,2.8c1.3,0,2.2-1.2,2.2-2.8c0-1.2-0.6-2.8-2.2-2.8C153.9,142.3,153.2,143.7,153.2,145.1
		L153.2,145.1z"/>
	<path class="st0" d="M160.7,138.1h1.3v10.6h-1.3V138.1z"/>
	<path class="st0" d="M170.7,145c0,2.7-1.9,3.9-3.6,3.9c-2,0-3.5-1.4-3.5-3.7c0-2.4,1.6-3.9,3.6-3.9
		C169.3,141.3,170.7,142.8,170.7,145z M165,145.1c0,1.6,0.9,2.8,2.2,2.8c1.3,0,2.2-1.2,2.2-2.8c0-1.2-0.6-2.8-2.2-2.8
		S165,143.7,165,145.1L165,145.1z"/>
	<path class="st0" d="M178.6,141.5c0,0.5-0.1,1.1-0.1,2v4.2c0,1.7-0.3,2.7-1,3.3c-0.7,0.7-1.7,0.9-2.6,0.9c-0.9,0-1.8-0.2-2.4-0.6
		l0.3-1c0.6,0.4,1.4,0.6,2.1,0.6c1.4,0,2.3-0.7,2.3-2.5v-0.8h0c-0.4,0.7-1.2,1.2-2.3,1.2c-1.8,0-3.1-1.5-3.1-3.5
		c0-2.5,1.6-3.9,3.3-3.9c1.3,0,1.9,0.7,2.3,1.3h0l0.1-1.1L178.6,141.5z M177.3,144.3c0-0.2,0-0.4-0.1-0.6c-0.2-0.8-0.9-1.4-1.8-1.4
		c-1.3,0-2.2,1.1-2.2,2.7c0,1.4,0.7,2.6,2.1,2.6c0.8,0,1.6-0.5,1.8-1.4c0.1-0.2,0.1-0.5,0.1-0.7L177.3,144.3z"/>
	<path class="st0" d="M183.4,138.3l-1.8,2.1h-0.9l1.3-2.1H183.4z M180.7,148.7v-7.2h1.3v7.2H180.7z"/>
	<path class="st0" d="M188.2,148.7l-0.1-0.9h0c-0.5,0.7-1.4,1.1-2.2,1.1c-1.5,0-2.2-1-2.2-2.1c0-1.8,1.6-2.7,4.4-2.7v-0.2
		c0-0.6-0.2-1.7-1.6-1.7c-0.7,0-1.3,0.2-1.9,0.5l-0.3-0.9c0.7-0.4,1.5-0.7,2.4-0.6c2.2,0,2.8,1.5,2.8,3v2.7c0,0.6,0,1.2,0.1,1.7
		L188.2,148.7z M188,145c-1.4,0-3.1,0.2-3.1,1.6c0,0.9,0.6,1.3,1.2,1.3c0.8,0,1.5-0.5,1.7-1.2c0-0.1,0.1-0.3,0.1-0.4L188,145z"/>
	<path class="st0" d="M43.5,147.1c0.7,0.4,1.5,0.6,2.3,0.7c1.3,0,2.1-0.7,2.1-1.7c0-0.9-0.5-1.5-1.9-2c-1.6-0.6-2.7-1.4-2.7-2.9
		c0-1.6,1.3-2.7,3.3-2.7c1,0,1.8,0.2,2.2,0.5l-0.4,1.1c-0.6-0.3-1.3-0.5-1.9-0.5c-1.4,0-1.9,0.8-1.9,1.5c0,0.9,0.6,1.4,2,1.9
		c1.7,0.7,2.6,1.5,2.6,3c0,1.6-1.2,2.9-3.5,2.9c-1,0-2-0.3-2.6-0.6L43.5,147.1z"/>
	<path class="st0" d="M51.8,145.3c0,1.8,1.2,2.5,2.5,2.5c0.7,0,1.4-0.1,2-0.4l0.2,0.9c-0.5,0.2-1.3,0.5-2.4,0.5
		c-2.2,0-3.6-1.5-3.6-3.7c0-2.2,1.3-3.9,3.4-3.9c2.4,0,3,2.1,3,3.4c0,0.2,0,0.4,0,0.6H51.8z M55.7,144.4c0-0.8-0.4-2.1-1.8-2.1
		c-1.3,0-1.9,1.2-2,2.1H55.7z"/>
	<path class="st0" d="M64.8,141.5c0,0.5-0.1,1.1-0.1,2v4.2c0,1.7-0.3,2.7-1,3.3c-0.7,0.7-1.7,0.9-2.6,0.9c-0.9,0-1.8-0.2-2.4-0.6
		l0.3-1c0.6,0.4,1.4,0.6,2.1,0.6c1.4,0,2.3-0.7,2.3-2.5v-0.8h0c-0.4,0.7-1.2,1.2-2.3,1.2c-1.8,0-3.1-1.5-3.1-3.5
		c0-2.5,1.6-3.9,3.3-3.9c1.3,0,1.9,0.7,2.3,1.3h0l0.1-1.1L64.8,141.5z M63.5,144.3c0-0.2,0-0.4-0.1-0.6c-0.2-0.8-0.9-1.4-1.8-1.4
		c-1.3,0-2.2,1.1-2.2,2.7c0,1.4,0.7,2.6,2.1,2.6c0.8,0,1.6-0.5,1.8-1.4c0.1-0.2,0.1-0.5,0.1-0.7L63.5,144.3z"/>
	<path class="st0" d="M73,146.7c0,0.7,0,1.4,0.1,2h-1.2l-0.1-1.2h0c-0.5,0.8-1.4,1.4-2.4,1.4c-1.1,0-2.5-0.6-2.5-3.2v-4.2h1.3v4
		c0,1.4,0.4,2.3,1.6,2.3c0.8,0,1.4-0.5,1.7-1.2c0.1-0.2,0.1-0.5,0.1-0.7v-4.4H73L73,146.7z"/>
	<path class="st0" d="M75.2,143.7c0-0.9,0-1.6-0.1-2.3h1.2l0,1.4h0.1c0.3-1,1.1-1.6,2-1.6c0.1,0,0.3,0,0.4,0v1.2c-0.1,0-0.3,0-0.5,0
		c-0.9,0-1.6,0.7-1.8,1.7c0,0.2-0.1,0.4-0.1,0.6v3.9h-1.3V143.7z"/>
	<path class="st0" d="M81.6,139.4c0,0.5-0.3,0.8-0.8,0.8c-0.4,0-0.8-0.3-0.8-0.8c0,0,0,0,0,0c0-0.5,0.3-0.8,0.8-0.8c0,0,0,0,0,0
		C81.3,138.6,81.6,138.9,81.6,139.4C81.6,139.4,81.6,139.4,81.6,139.4z M80.2,148.7v-7.2h1.3v7.2H80.2z"/>
	<path class="st0" d="M89.9,138.1v8.8c0,0.6,0,1.4,0.1,1.9h-1.2l-0.1-1.3h0c-0.4,0.8-1.3,1.4-2.5,1.4c-1.8,0-3.1-1.5-3.1-3.7
		c0-2.4,1.5-3.9,3.3-3.9c1.1,0,1.9,0.5,2.2,1.1h0v-4.3L89.9,138.1L89.9,138.1z M88.6,144.4c0-0.2,0-0.4-0.1-0.5
		c-0.2-0.9-1-1.5-1.9-1.5c-1.4,0-2.2,1.2-2.2,2.8c0,1.5,0.7,2.7,2.1,2.7c0.9,0,1.7-0.7,1.9-1.6c0-0.2,0.1-0.4,0.1-0.6V144.4z"/>
	<path class="st0" d="M96.1,148.7l-0.1-0.9h0c-0.5,0.7-1.4,1.1-2.2,1.1c-1.5,0-2.2-1-2.2-2.1c0-1.8,1.6-2.7,4.4-2.7v-0.2
		c0-0.6-0.2-1.7-1.6-1.7c-0.7,0-1.3,0.2-1.9,0.5l-0.3-0.9c0.7-0.4,1.5-0.7,2.4-0.6c2.2,0,2.8,1.5,2.8,3v2.7c0,0.6,0,1.2,0.1,1.7
		L96.1,148.7z M95.9,145c-1.4,0-3.1,0.2-3.1,1.6c0,0.9,0.6,1.3,1.2,1.3c0.8,0,1.5-0.5,1.8-1.2c0-0.1,0.1-0.3,0.1-0.4V145z"/>
	<path class="st0" d="M105.6,138.1v8.8c0,0.6,0,1.4,0.1,1.9h-1.2l-0.1-1.3h0c-0.4,0.8-1.3,1.4-2.5,1.4c-1.8,0-3.1-1.5-3.1-3.7
		c0-2.4,1.5-3.9,3.3-3.9c1.1,0,1.9,0.5,2.2,1.1h0v-4.3L105.6,138.1L105.6,138.1z M104.3,144.4c0-0.2,0-0.4-0.1-0.5
		c-0.2-0.9-1-1.5-1.9-1.5c-1.4,0-2.2,1.2-2.2,2.8c0,1.5,0.7,2.7,2.1,2.7c0.9,0,1.7-0.7,1.9-1.6c0-0.2,0.1-0.4,0.1-0.6V144.4z"/>
</g>
</svg>
