<svg id="Layer_1" data-name="Layer 1" xmlns="http://www.w3.org/2000/svg" viewBox="0 0 2249.5 474.48"><defs><style>.cls-1{fill:#1c4377;}</style></defs><title>logoB</title><path class="cls-1" d="M851.6,286.3h-9.5c-17.7,0-35.3-.4-53,.2-7.9.3-12.5-2.2-16.7-9.1-28.7-46.9-57.8-93.5-86.8-140.1a46.81,46.81,0,0,0-7.5-9.6c-2.3,26.2-1.4,52.2-1.6,78.2-.2,26.3,0,52.6,0,80-25.1,1.1-49.5.3-74.6.5V5.1c4-.2,7.5-.6,11.1-.6,17.3-.1,34.7.4,52-.2,8.6-.3,13.8,2.3,18.5,9.8,28.3,44.8,57.2,89.1,85.9,133.6,1.9,3,4,5.8,7.2,10.3,2.6-11.7,1.1-21.5,1.4-31.2.3-10,.1-20,.1-30V4.7c25.3-.3,49.4-.2,73.2-.1C854.3,13,854.6,275.9,851.6,286.3Z" transform="translate(0 -0.02)"/><path class="cls-1" d="M275.7,145.8c0-61,39.5-121.7,104.2-140.3,78.1-22.6,159.6,27,176.7,107.1,15.1,70.6-20.5,140.5-85.1,167.2-78.6,32.6-168.8-13.2-189.9-96.8C278.6,170.9,277.7,158.2,275.7,145.8Zm214.4-.6c0-40.5-31.8-73.2-71.4-73.5-39.3-.3-71.9,32.8-72,73.1-.1,40.8,32.5,74.4,72.1,74.2C458.1,218.7,490,185.7,490.1,145.2Z" transform="translate(0 -0.02)"/><path class="cls-1" d="M1566.6.1c68.8,0,128.5,49.7,139.9,116.6,9.7,56.7-6.4,105.2-51,142.2-60,49.7-148,39.7-197.1-21.1-64.2-79.4-29.1-200.6,67-231.2A141.26,141.26,0,0,1,1566.6.1Zm72.9,145.6c.1-40.9-32.4-74.3-72.1-74s-71.3,32.9-71.3,73.6c0,40.4,32.1,73.5,71.4,73.7,39.1.1,71.9-33.2,72-73.3Z" transform="translate(0 -0.02)"/><path class="cls-1" d="M1242.9,64.6V285.7h-73.7c-2-7.2-2.8-263.6-.7-280.4,2.9-.2,6.1-.7,9.3-.7,42.3,0,84.6-.3,126.9,0,56.5.4,96.9,48.2,88.8,104.2-4,28-17.2,50-40.9,65.6-1.1.7-2.1,1.6-4.3,3.2q14.25,26.55,28.6,53.2c9.6,17.8,19.2,35.6,29.9,55.3-27.8.2-53.8.1-80.9.1l-75.3-151.1c10.4,0,19,.2,27.6-.1a61.8,61.8,0,0,0,14.8-1.8c20.2-5.6,30.6-23.8,25.6-44.1-3.4-14-13.7-23.6-28.1-24.3C1275.3,64.1,1259.9,64.6,1242.9,64.6Z" transform="translate(0 -0.02)"/><path class="cls-1" d="M2175.9,285.6l-63.3-183.7-2.5-.1c-11.1,30.4-21.3,61.1-31.9,91.7s-21.3,61.5-32,92.4h-71.3c-.3-.5-.5-.7-.7-1s-.4-.6-.3-.9c.5-1.9,1-3.8,1.7-5.7q53.55-135,107.2-270.4h59.3l107.4,276.4C2241.3,286.7,2196.5,287.4,2175.9,285.6Z" transform="translate(0 -0.02)"/><path class="cls-1" d="M1119.9,68.7h-71.6V285.6H973.5c-.3-4.2-.8-8.4-.8-12.6q-.15-95.4-.1-190.9c0-4.2-.4-8.5-.7-13.4H901.5c-2.2-8.3-2.5-53.6-.5-63,8.1-2.1,209.1-2.3,218.9,0Z" transform="translate(0 -0.02)"/><path class="cls-1" d="M1749.5,5h73.3c.3,4.5.8,8.6.8,12.8q.15,93.9,0,187.8v14c4.7.4,8.5.9,12.3.9q42,.15,83.9,0h12.4v65.1H1749.7C1747.7,277.8,1747.3,16.5,1749.5,5Z" transform="translate(0 -0.02)"/><path class="cls-1" d="M90.3,127.8,125,84.3c19.5-24.5,39.1-48.9,58.5-73.4,3.3-4.2,6.7-6.6,12.4-6.5,23.6.3,47.3.1,70.9.2,1.9,0,3.7.4,7.3.8L178.7,128.3,283.6,285.8c-4.1.3-6.3.5-8.5.5-25,0-50-.1-75,.1-5.1,0-8.6-1.2-11.5-5.8q-47.7-73.8-95.7-147.5C92.2,131.7,91.6,130.2,90.3,127.8Z" transform="translate(0 -0.02)"/><path class="cls-1" d="M0,5.2H74.1V285.6H0Z" transform="translate(0 -0.02)"/><path class="cls-1" d="M1308.3,465.7c-.2-3-.6-6.2-.6-9.4q-.15-36.45,0-72.8a15,15,0,0,1,0-3c.5-2.9-1.3-7.6,4-7.5,4.3.1,3.5,4.2,3.5,7q.15,39.9,0,79.8C1315.1,463.6,1314.9,467.5,1308.3,465.7Z" transform="translate(0 -0.02)"/><path class="cls-1" d="M719.8,467.7c-2.9-1.9-5-2.7-6.1-4.2-.8-1.2-.6-3.2-.6-4.8,0-25.9-.1-51.9,0-77.8,0-3-1.3-7.9,3.5-7.9,5.5,0,3.8,5.2,3.8,8.4.2,19.3.1,38.6.1,57.8,0,6,.1,12,0,18C720.5,460.2,720.1,463.1,719.8,467.7Z" transform="translate(0 -0.02)"/><path class="cls-1" d="M1427.7,420.7c-.5-10-1.2-22-1.1-31h-.3c-2.4,8.4-5.4,17.4-9,27.3l-12.7,34.9h-7L1386,417.7c-3.4-10.1-6.3-19.4-8.3-27.9h-.2c-.2,8.9-.8,21-1.4,31.7l-2,30.7h-8.8l5-71.7h11.8l12.2,34.7c3,8.8,5.4,16.7,7.2,24.2h.3c1.8-7.2,4.4-15.1,7.6-24.2l12.8-34.7H1434l4.5,71.7h-9Z" transform="translate(0 -0.02)"/><path class="cls-1" d="M1481.6,452.2l-.8-6.5h-.3a19.47,19.47,0,0,1-15.8,7.7c-10.4,0-15.8-7.3-15.8-14.8,0-12.5,11.1-19.3,31-19.2v-1.1c0-4.3-1.2-11.9-11.7-11.9a25.4,25.4,0,0,0-13.4,3.8l-2.1-6.2a31.63,31.63,0,0,1,16.9-4.6c15.8,0,19.6,10.8,19.6,21.1v19.2a72,72,0,0,0,.8,12.3Zm-1.3-26.3c-10.2-.2-21.8,1.6-21.8,11.6,0,6.1,4,8.9,8.8,8.9a13,13,0,0,0,12.5-8.6,10.47,10.47,0,0,0,.5-3Z" transform="translate(0 -0.02)"/><path class="cls-1" d="M1504.4,414.6c0-5.3-.1-9.7-.4-13.9h8.3l.5,8.5h.2a19,19,0,0,1,17-9.7c7.1,0,18.2,4.3,18.2,21.9v30.8h-9.4V422.5c0-8.3-3.1-15.2-11.9-15.2a13.29,13.29,0,0,0-12.5,9.5,10.93,10.93,0,0,0-.6,4.4v31h-9.4V414.6Z" transform="translate(0 -0.02)"/><path class="cls-1" d="M1574.3,385.9v14.8h13.4v7.1h-13.4v27.8c0,6.4,1.8,10,7,10a24.16,24.16,0,0,0,5.4-.6l.4,7a23.63,23.63,0,0,1-8.3,1.3c-4.4,0-7.9-1.4-10.1-3.9-2.7-2.8-3.6-7.3-3.6-13.4V407.9h-8v-7.1h8V388.4Z" transform="translate(0 -0.02)"/><path class="cls-1" d="M1602.9,428.2c.2,12.7,8.3,17.9,17.7,17.9a33.42,33.42,0,0,0,14.3-2.7l1.6,6.7c-3.3,1.5-8.9,3.2-17.1,3.2-15.9,0-25.3-10.4-25.3-26s9.2-27.7,24.2-27.7c16.8,0,21.3,14.8,21.3,24.3a32.52,32.52,0,0,1-.3,4.4h-36.4Zm27.4-6.7c.1-6-2.4-15.2-13-15.2-9.5,0-13.6,8.7-14.4,15.2Z" transform="translate(0 -0.02)"/><path class="cls-1" d="M1651,414.6c0-5.3-.1-9.7-.4-13.9h8.3l.5,8.5h.2a19,19,0,0,1,17-9.7c7.1,0,18.2,4.3,18.2,21.9v30.8h-9.4V422.5c0-8.3-3.1-15.2-11.9-15.2a13.48,13.48,0,0,0-12.6,9.6,10.93,10.93,0,0,0-.6,4.4v31h-9.4Z" transform="translate(0 -0.02)"/><path class="cls-1" d="M1720.5,386.2c.1,3.2-2.2,5.8-6,5.8a5.51,5.51,0,0,1-5.6-5.5v-.3a5.72,5.72,0,0,1,5.6-5.9h.3a5.51,5.51,0,0,1,5.8,5.3A1.76,1.76,0,0,0,1720.5,386.2Zm-10.4,66V400.7h9.4v51.5Z" transform="translate(0 -0.02)"/><path class="cls-1" d="M1735,414.6c0-5.3-.1-9.7-.4-13.9h8.2l.4,8.3h.3c2.9-4.9,7.7-9.5,16.2-9.5a15.2,15.2,0,0,1,14.6,10.3h.2a20.7,20.7,0,0,1,5.8-6.7,17.45,17.45,0,0,1,11.4-3.6c6.8,0,16.9,4.5,16.9,22.4v30.3h-9.2V423.1c0-9.9-3.6-15.9-11.2-15.9-5.3,0-9.5,3.9-11.1,8.5a18.51,18.51,0,0,0-.8,4.7v31.8h-9.2V421.3c0-8.2-3.6-14.2-10.8-14.2-5.8,0-10.1,4.7-11.6,9.4a14.35,14.35,0,0,0-.8,4.6v31.1h-9.2V414.6Z" transform="translate(0 -0.02)"/><path class="cls-1" d="M1834.2,386.2c.1,3.2-2.2,5.8-6,5.8a5.51,5.51,0,0,1-5.6-5.5v-.3a5.72,5.72,0,0,1,5.6-5.9h.3a5.51,5.51,0,0,1,5.8,5.3A1.76,1.76,0,0,0,1834.2,386.2Zm-10.4,66V400.7h9.4v51.5Z" transform="translate(0 -0.02)"/><path class="cls-1" d="M1853.9,428.2c.2,12.7,8.3,17.9,17.7,17.9a33.42,33.42,0,0,0,14.3-2.7l1.6,6.7c-3.3,1.5-8.9,3.2-17.1,3.2-15.9,0-25.3-10.4-25.3-26s9.2-27.7,24.2-27.7c16.8,0,21.3,14.8,21.3,24.3a32.52,32.52,0,0,1-.3,4.4h-36.4Zm27.4-6.7c.1-6-2.4-15.2-13-15.2-9.5,0-13.6,8.7-14.4,15.2Z" transform="translate(0 -0.02)"/><path class="cls-1" d="M1902,414.6c0-5.3-.1-9.7-.4-13.9h8.3l.5,8.5h.2a19,19,0,0,1,17-9.7c7.1,0,18.2,4.3,18.2,21.9v30.8h-9.4V422.5c0-8.3-3.1-15.2-11.9-15.2a13.48,13.48,0,0,0-12.6,9.6,10.93,10.93,0,0,0-.6,4.4v31h-9.4Z" transform="translate(0 -0.02)"/><path class="cls-1" d="M1971.9,385.9v14.8h13.4v7.1h-13.4v27.8c0,6.4,1.8,10,7,10a24.16,24.16,0,0,0,5.4-.6l.4,7a23.63,23.63,0,0,1-8.3,1.3c-4.4,0-7.9-1.4-10.1-3.9-2.7-2.8-3.6-7.3-3.6-13.4V407.9h-8v-7.1h8V388.4Z" transform="translate(0 -0.02)"/><path class="cls-1" d="M2041.8,426c0,19-13.2,27.4-25.6,27.4-13.9,0-24.7-10.2-24.7-26.5,0-17.2,11.3-27.4,25.6-27.4C2031.8,399.5,2041.8,410.3,2041.8,426Zm-40.8.6c0,11.3,6.5,19.8,15.6,19.8,8.9,0,15.6-8.4,15.6-20,0-8.7-4.4-19.8-15.4-19.8s-15.8,10.2-15.8,20Z" transform="translate(0 -0.02)"/><path class="cls-1" d="M788.8,388.4H767v-7.9h53.1v7.9H798.2v63.9h-9.4V388.4Z" transform="translate(0 -0.02)"/><path class="cls-1" d="M825.5,428.2c.2,12.7,8.3,17.9,17.7,17.9a33.42,33.42,0,0,0,14.3-2.7l1.6,6.7c-3.3,1.5-8.9,3.2-17.1,3.2-15.9,0-25.3-10.4-25.3-26s9.2-27.8,24.2-27.8c16.8,0,21.3,14.8,21.3,24.3a32.53,32.53,0,0,1-.3,4.4Zm27.4-6.7c.1-6-2.5-15.2-13-15.2-9.5,0-13.6,8.7-14.4,15.2Z" transform="translate(0 -0.02)"/><path class="cls-1" d="M910.3,450.3a34.42,34.42,0,0,1-14.8,3c-15.5,0-25.7-10.5-25.7-26.3s10.9-27.4,27.7-27.4a30.63,30.63,0,0,1,13,2.7l-2.1,7.2a22.69,22.69,0,0,0-10.9-2.5c-11.8,0-18.2,8.7-18.2,19.5,0,11.9,7.7,19.3,17.9,19.3a28.31,28.31,0,0,0,11.5-2.5Z" transform="translate(0 -0.02)"/><path class="cls-1" d="M921.3,414.6c0-5.3-.1-9.7-.4-13.9h8.3l.5,8.5h.2a19,19,0,0,1,17-9.7c7.1,0,18.2,4.3,18.2,21.9v30.8h-9.4V422.5c0-8.3-3.1-15.2-11.9-15.2a13.29,13.29,0,0,0-12.5,9.5,10.92,10.92,0,0,0-.6,4.4v31h-9.4Z" transform="translate(0 -0.02)"/><path class="cls-1" d="M1026.9,426c0,19-13.2,27.4-25.7,27.4-13.9,0-24.7-10.2-24.7-26.5,0-17.2,11.3-27.4,25.6-27.4C1016.9,399.5,1026.9,410.3,1026.9,426Zm-40.8.6c0,11.3,6.5,19.8,15.7,19.8,8.9,0,15.7-8.4,15.7-20,0-8.7-4.4-19.8-15.4-19.8s-16,10.2-16,20Z" transform="translate(0 -0.02)"/><path class="cls-1" d="M1038.8,376.6h9.4v75.6h-9.4Z" transform="translate(0 -0.02)"/><path class="cls-1" d="M1110.5,426c0,19-13.2,27.4-25.7,27.4-13.9,0-24.7-10.2-24.7-26.5,0-17.2,11.3-27.4,25.6-27.4C1100.5,399.5,1110.5,410.3,1110.5,426Zm-40.9.6c0,11.3,6.5,19.8,15.7,19.8,8.9,0,15.7-8.4,15.7-20,0-8.7-4.4-19.8-15.4-19.8s-16,10.2-16,20Z" transform="translate(0 -0.02)"/><path class="cls-1" d="M1166.7,400.7c-.2,3.7-.4,7.9-.4,14.2v29.9c0,11.8-2.3,19-7.3,23.5-5,4.7-12.2,6.2-18.7,6.2-6.2,0-13-1.5-17.1-4.3l2.3-7.1a28.73,28.73,0,0,0,15.1,4c9.6,0,16.6-5,16.6-18v-5.8h-.2c-2.9,4.8-8.4,8.6-16.4,8.6-12.8,0-21.9-10.9-21.9-25.1,0-17.5,11.4-27.4,23.2-27.4,8.9,0,13.8,4.7,16.1,8.9h.2l.4-7.8ZM1157,421a12.67,12.67,0,0,0-.5-4.3c-1.7-5.4-6.3-9.9-13.1-9.9-8.9,0-15.3,7.6-15.3,19.5,0,10.1,5.1,18.5,15.2,18.5a13.62,13.62,0,0,0,13-9.6,16.87,16.87,0,0,0,.8-5Z" transform="translate(0 -0.02)"/><path class="cls-1" d="M1200.2,378.5l-13,15.2h-6.7l9.4-15.2Zm-19,73.7V400.7h9.4v51.5Z" transform="translate(0 -0.02)"/><path class="cls-1" d="M1234.6,452.2l-.8-6.5h-.3a19.47,19.47,0,0,1-15.8,7.7c-10.4,0-15.8-7.3-15.8-14.8,0-12.5,11.1-19.3,31-19.2v-1.1c0-4.3-1.2-11.9-11.7-11.9a25.4,25.4,0,0,0-13.4,3.8l-2.1-6.2a31.63,31.63,0,0,1,16.9-4.6c15.8,0,19.6,10.8,19.6,21.1v19.2a72,72,0,0,0,.8,12.3Zm-1.4-26.3c-10.2-.2-21.8,1.6-21.8,11.6,0,6.1,4,8.9,8.8,8.9a12.73,12.73,0,0,0,12.4-8.6,10.47,10.47,0,0,0,.5-3Z" transform="translate(0 -0.02)"/><path class="cls-1" d="M205.9,440.9a33.55,33.55,0,0,0,16.6,4.7c9.5,0,15-5,15-12.2,0-6.7-3.8-10.5-13.5-14.3-11.7-4.2-18.9-10.2-18.9-20.3,0-11.2,9.3-19.5,23.2-19.5,7.3,0,12.7,1.7,15.9,3.5l-2.5,7.6a28.29,28.29,0,0,0-13.6-3.4c-9.8,0-13.5,5.9-13.5,10.8,0,6.7,4.4,10,14.3,13.8,12.1,4.7,18.3,10.5,18.3,21.1,0,11.1-8.2,20.7-25.1,20.7-6.9,0-14.5-2-18.3-4.6Z" transform="translate(0 -0.02)"/><path class="cls-1" d="M265.2,428.2c.2,12.7,8.3,17.9,17.7,17.9a34.53,34.53,0,0,0,14.2-2.7l1.6,6.7c-3.3,1.5-8.9,3.2-17.1,3.2-15.9,0-25.3-10.4-25.3-26s9.1-27.8,24.2-27.8c16.8,0,21.3,14.8,21.3,24.3a32.53,32.53,0,0,1-.3,4.4Zm27.5-6.7c.1-6-2.5-15.2-13-15.2-9.5,0-13.6,8.7-14.4,15.2Z" transform="translate(0 -0.02)"/><path class="cls-1" d="M357.7,400.7c-.2,3.7-.4,7.9-.4,14.2v29.9c0,11.8-2.3,19-7.3,23.5-5,4.7-12.2,6.2-18.7,6.2-6.2,0-13-1.5-17.1-4.3l2.3-7.1a28.73,28.73,0,0,0,15.1,4c9.6,0,16.6-5,16.6-18v-5.8H348c-2.9,4.8-8.4,8.6-16.4,8.6-12.8,0-21.9-10.9-21.9-25.1,0-17.5,11.4-27.4,23.2-27.4,8.9,0,13.8,4.7,16.1,8.9h.2l.4-7.8ZM348,421a12.67,12.67,0,0,0-.5-4.3c-1.7-5.4-6.3-9.9-13.1-9.9-8.9,0-15.3,7.6-15.3,19.5,0,10.1,5.1,18.5,15.2,18.5a13.62,13.62,0,0,0,13-9.6,16.87,16.87,0,0,0,.8-5Z" transform="translate(0 -0.02)"/><path class="cls-1" d="M415.9,438.2c0,5.3.1,10,.4,14.1H408l-.5-8.4h-.2a19.38,19.38,0,0,1-17,9.6c-8.1,0-17.8-4.5-17.8-22.6V400.8h9.4v28.5c0,9.8,3,16.4,11.5,16.4a13.75,13.75,0,0,0,12.4-8.5,13.19,13.19,0,0,0,.9-4.8V400.8h9.4Z" transform="translate(0 -0.02)"/><path class="cls-1" d="M431.5,416.8c0-6.1-.1-11.3-.4-16.1h8.2l.3,10.1h.4c2.3-6.9,8-11.3,14.3-11.3a12.41,12.41,0,0,1,2.7.3v8.8a16.55,16.55,0,0,0-3.2-.3c-6.6,0-11.3,5-12.6,12a21.19,21.19,0,0,0-.4,4.4v27.5h-9.3Z" transform="translate(0 -0.02)"/><path class="cls-1" d="M477.1,386.2c.1,3.2-2.2,5.8-6,5.8a5.51,5.51,0,0,1-5.6-5.5v-.3a5.72,5.72,0,0,1,5.6-5.9h.3a5.51,5.51,0,0,1,5.8,5.3A1.76,1.76,0,0,0,477.1,386.2Zm-10.4,66V400.7h9.4v51.5Z" transform="translate(0 -0.02)"/><path class="cls-1" d="M536.1,376.6v62.3c0,4.6.1,9.8.4,13.3h-8.4l-.4-8.9h-.2c-2.9,5.8-9.2,10.1-17.6,10.1-12.5,0-22-10.5-22-26.2-.1-17.1,10.5-27.7,23.1-27.7,7.9,0,13.2,3.7,15.5,7.9h.2V376.6h9.4Zm-9.3,45a17.22,17.22,0,0,0-.4-3.9,13.8,13.8,0,0,0-13.5-10.9c-9.7,0-15.4,8.5-15.4,19.9,0,10.4,5.1,19.1,15.2,19.1a14,14,0,0,0,13.7-11.2,13.61,13.61,0,0,0,.4-4Z" transform="translate(0 -0.02)"/><path class="cls-1" d="M580.2,452.2l-.8-6.5h-.3a19.47,19.47,0,0,1-15.8,7.7c-10.4,0-15.8-7.3-15.8-14.8,0-12.5,11.1-19.3,31-19.2v-1.1c0-4.3-1.2-11.9-11.7-11.9a25.4,25.4,0,0,0-13.4,3.8l-2.1-6.2a31.63,31.63,0,0,1,16.9-4.6c15.8,0,19.6,10.8,19.6,21.1v19.2a72,72,0,0,0,.8,12.3Zm-1.4-26.3c-10.2-.2-21.8,1.6-21.8,11.6,0,6.1,4,8.9,8.8,8.9a13.08,13.08,0,0,0,12.5-8.6,10.47,10.47,0,0,0,.5-3Z" transform="translate(0 -0.02)"/><path class="cls-1" d="M647.5,376.6v62.3c0,4.6.1,9.8.4,13.3h-8.4l-.4-8.9h-.2c-2.9,5.8-9.2,10.1-17.6,10.1-12.5,0-22-10.5-22-26.2-.1-17.1,10.5-27.7,23.1-27.7,7.9,0,13.2,3.7,15.5,7.9h.2V376.6h9.4Zm-9.4,45a17.22,17.22,0,0,0-.4-3.9,13.8,13.8,0,0,0-13.5-10.9c-9.7,0-15.4,8.5-15.4,19.9,0,10.4,5.1,19.1,15.2,19.1a14,14,0,0,0,13.7-11.2,13.61,13.61,0,0,0,.4-4Z" transform="translate(0 -0.02)"/></svg>