<svg width="347" height="299" viewBox="0 0 347 299" fill="none" xmlns="http://www.w3.org/2000/svg">
<g clip-path="url(#clip0_64_292)">
<path d="M289.543 17.5712C289.492 25.4866 289.732 33.2864 289.08 41.2342C288.325 41.0491 287.691 40.8994 287.057 40.7375C274.573 37.5364 262.009 34.6686 249.345 32.2759C241.779 30.8464 234.188 29.549 226.572 28.3837C220.989 27.5368 215.365 26.9352 209.742 26.3983C203.605 25.8106 197.456 25.2953 191.299 24.9791C181.799 24.49 172.289 24.2895 162.778 24.7677C158.261 24.9945 153.738 25.1673 149.23 25.519C144.366 25.8975 139.509 26.3762 134.66 26.9552C129.106 27.6109 123.54 28.2866 118.016 29.1782C110.059 30.4633 102.126 31.9103 94.2002 33.3666C90.6166 34.0253 87.0684 34.8707 83.5049 35.6405C83.0158 35.7454 82.5391 35.9058 81.9714 36.0662C82.0763 38.2121 82.0949 40.2654 82.2939 42.3017C82.8338 47.8245 83.2873 53.3627 84.0633 58.8531C87.1487 80.6634 93.2623 101.517 104.135 120.802C116.279 142.342 133.225 158.929 155.344 170.131C160.855 172.896 166.542 175.297 172.367 177.316C173.137 177.591 173.98 177.579 174.742 177.282C192.482 171.141 208.307 161.846 221.736 148.637C231.609 138.918 239.5 127.755 245.786 115.432C249.742 107.679 252.958 99.6243 255.632 91.3464C255.786 90.862 255.956 90.3806 256.175 89.7312C264.076 91.3494 271.893 93.1652 279.768 95.1305C279.713 95.5552 279.635 95.9765 279.534 96.3924C273.616 115.605 265.142 133.548 253.04 149.684C237.075 170.973 216.65 186.474 192.137 196.682C186.348 199.078 180.428 201.145 174.405 202.874C173.878 203.033 173.318 203.047 172.784 202.915C151.629 196.802 132.366 187.082 115.562 172.728C100.743 160.079 89.1341 144.886 80.1681 127.639C72.322 112.547 66.8764 96.5914 63.1817 80.0154C61.0648 70.4316 59.5378 60.7269 58.6092 50.9561C57.699 41.5828 57.3921 32.1833 57.48 22.7684C57.4939 21.3291 57.4692 19.8882 57.48 18.4489C57.4954 17.1685 57.5 17.1299 58.7913 16.7998C65.505 15.0844 72.2032 13.2995 78.9463 11.709C88.7931 9.39499 98.7372 7.5299 108.72 5.92398C114.802 4.94592 120.903 4.08563 127.022 3.34309C133.599 2.54398 140.195 1.90377 146.79 1.27282C150.011 0.964287 153.248 0.799221 156.481 0.635697C165.78 0.165182 175.089 0.055653 184.391 0.364187C191.683 0.606387 198.978 0.972 206.248 1.58598C229.161 3.52049 251.809 7.12109 274.074 12.9354C278.989 14.2189 283.829 15.7863 288.702 17.2287C288.953 17.3012 289.179 17.42 289.543 17.5712Z" fill="white"/>
<path d="M217.292 82.4976C225.486 83.5019 233.462 84.8116 241.521 86.6505C241.16 87.6547 240.882 88.4708 240.575 89.273C237.359 97.7315 232.886 105.519 227.788 112.956C218.985 125.791 208.759 137.346 196.592 147.109C191.082 151.531 185.227 155.417 178.736 158.277C174.054 160.339 174.058 160.333 169.267 158.601C152.641 152.584 139.229 142.258 128.522 128.3C120.279 117.555 114.28 105.611 109.757 92.8967C105.493 80.9322 102.578 68.5296 101.064 55.9189C100.82 53.8856 100.622 51.8462 100.388 49.6664C101.994 49.2252 103.455 48.7917 104.933 48.4323C114.004 46.1936 123.183 44.4137 132.434 43.0993C140.114 41.9978 147.823 41.1751 155.56 40.631C163.051 40.0993 170.55 39.8653 178.055 39.9291C184.38 39.9831 190.693 40.2716 196.984 40.9334C203.01 41.5674 209.046 42.1367 215.053 42.9234C221.261 43.7364 227.466 44.6358 233.625 45.7511C243.625 47.5607 253.609 49.469 263.553 51.5439C271.188 53.1375 278.756 55.0519 286.352 56.8291C286.747 56.9216 287.124 57.0651 287.693 57.2394C286.821 64.8012 285.553 72.312 283.893 79.7408C283.482 79.7131 283.122 79.7408 282.814 79.6606C272.36 76.8036 261.822 74.3014 251.18 72.2758C243.158 70.7501 235.122 69.3232 227.058 68.0643C220.261 67.003 213.43 66.1268 206.59 65.3955C200.719 64.7677 194.813 64.4298 188.92 64.0179C180.704 63.444 172.472 63.532 164.256 63.8205C156.763 64.0827 149.275 64.655 141.799 65.2567C137.247 65.6238 132.719 66.3026 128.182 66.8549C127.682 66.9151 127.193 67.0601 126.613 67.1835C126.635 67.6077 126.613 67.9548 126.678 68.2957C129.259 80.8485 133.216 92.9106 139.552 104.112C144.334 112.564 150.266 120.057 157.999 126.027C162.2 129.252 166.832 131.873 171.76 133.813C172.223 134.019 172.727 134.119 173.234 134.105C173.741 134.092 174.239 133.966 174.691 133.736C184.437 129.248 192.617 122.744 199.483 114.548C206.791 105.824 212.088 95.9466 216.176 85.3778L217.292 82.4976Z" fill="white"/>
<path d="M131.38 270.097H129.912C127.187 270.097 124.461 270.039 121.735 270.124C120.52 270.162 119.805 269.79 119.153 268.723C114.733 261.489 110.236 254.302 105.763 247.102C105.445 246.558 105.057 246.059 104.607 245.618C104.251 249.655 104.386 253.669 104.362 257.679C104.337 261.733 104.362 265.787 104.362 270.02C100.485 270.187 96.7194 270.068 92.8596 270.105V226.727C93.4767 226.694 94.0197 226.642 94.5689 226.64C97.2424 226.631 99.9173 226.705 102.591 226.608C103.922 226.558 104.712 226.966 105.445 228.127C109.809 235.032 114.267 241.879 118.699 248.742C118.994 249.205 119.316 249.635 119.805 250.328C120.213 248.528 119.98 247.01 120.021 245.512C120.065 243.969 120.031 242.426 120.031 240.884V226.659C123.931 226.614 127.652 226.636 131.328 226.645C131.786 227.947 131.831 268.502 131.38 270.097Z" fill="white"/>
<path d="M42.533 248.42C42.533 239.009 48.6311 229.648 58.6076 226.773C70.6512 223.302 83.2302 230.955 85.8712 243.312C88.1961 254.195 82.7119 264.98 72.7477 269.113C60.6239 274.142 46.7151 267.074 43.457 254.175C42.9834 252.3 42.8338 250.34 42.533 248.42ZM75.6032 248.33C75.6032 242.081 70.7052 237.036 64.5824 236.995C58.5212 236.953 53.4952 242.056 53.4751 248.265C53.4582 254.558 58.4904 259.737 64.5916 259.706C70.6728 259.673 75.5955 254.58 75.6094 248.329L75.6032 248.33Z" fill="white"/>
<path d="M241.681 225.951C252.301 225.951 261.504 233.612 263.271 243.938C264.766 252.684 262.287 260.17 255.403 265.872C246.147 273.536 232.572 272.001 224.994 262.618C215.09 250.365 220.511 231.666 235.33 226.949C237.387 226.307 239.527 225.971 241.681 225.951ZM252.921 248.407C252.94 242.102 247.92 236.95 241.803 236.992C235.686 237.033 230.795 242.073 230.795 248.338C230.795 254.566 235.751 259.678 241.812 259.703C247.852 259.729 252.904 254.59 252.921 248.407Z" fill="white"/>
<path d="M191.736 235.907V270.014H180.368C180.059 268.903 179.934 229.343 180.254 226.756C180.709 226.719 181.199 226.643 181.69 226.642C188.217 226.642 194.745 226.596 201.272 226.642C209.995 226.711 216.216 234.073 214.978 242.712C214.361 247.031 212.33 250.425 208.673 252.835C208.503 252.946 208.349 253.08 208.017 253.332C209.483 256.061 210.952 258.796 212.424 261.537C213.905 264.288 215.391 267.035 217.031 270.074C212.742 270.105 208.724 270.088 204.555 270.085L192.933 246.778C194.543 246.778 195.864 246.809 197.188 246.766C197.955 246.763 198.72 246.669 199.466 246.487C202.585 245.621 204.19 242.817 203.421 239.677C202.891 237.518 201.31 236.034 199.085 235.924C196.729 235.818 194.366 235.907 191.736 235.907Z" fill="white"/>
<path d="M335.667 269.988L325.896 241.646L325.508 241.632C323.793 246.319 322.23 251.061 320.59 255.775C318.945 260.517 317.299 265.268 315.654 270.026H304.647C304.596 269.954 304.565 269.915 304.542 269.872C304.519 269.829 304.479 269.772 304.49 269.733C304.561 269.436 304.648 269.142 304.752 268.854C310.254 254.97 315.766 241.067 321.288 227.146H330.439L347.004 269.784C345.758 270.164 338.842 270.273 335.667 269.988Z" fill="white"/>
<path d="M172.758 236.533H161.709V269.991H150.17C150.127 269.34 150.048 268.695 150.048 268.05C150.04 258.234 150.036 248.418 150.037 238.602C150.037 237.95 149.971 237.295 149.928 236.529H139.067C138.722 235.253 138.688 228.263 138.987 226.81C140.238 226.484 171.249 226.461 172.758 226.81V236.533Z" fill="white"/>
<path d="M157.047 93.0865C159.481 94.8621 161.984 95.7167 164.828 94.9485C166.741 94.4624 168.419 93.3099 169.558 91.6981C172.272 87.8923 171.516 83.7024 167.426 79.8195C171.756 77.342 180.169 78.0562 185.353 83.3399C190.841 88.9336 191.803 97.5818 187.556 104.198C185.487 107.401 182.386 109.8 178.767 110.999C175.148 112.198 171.228 112.125 167.656 110.792C160.47 108.106 155.956 100.712 157.047 93.0865Z" fill="white"/>
<path d="M269.889 226.708H281.194C281.238 227.399 281.317 228.041 281.319 228.683C281.327 238.341 281.327 247.999 281.319 257.657C281.319 258.317 281.319 258.978 281.319 259.817C282.045 259.871 282.635 259.951 283.224 259.953C287.543 259.964 291.859 259.964 296.17 259.953H298.089V269.996H269.932C269.61 268.797 269.55 228.484 269.889 226.708Z" fill="white"/>
<path d="M13.9365 245.657L19.2911 238.948C22.304 235.174 25.3292 231.409 28.3219 227.618C28.8357 226.969 29.3602 226.605 30.241 226.616C33.8894 226.66 37.5379 226.633 41.1863 226.639C41.4717 226.639 41.7571 226.702 42.3047 226.768L27.5923 245.717L43.7733 270.008C43.1393 270.049 42.8015 270.091 42.4621 270.091C38.6054 270.091 34.7487 270.077 30.8997 270.108C30.1099 270.108 29.5777 269.929 29.1195 269.216C24.22 261.621 19.3019 254.038 14.3654 246.465C14.2265 246.254 14.1263 246.019 13.9365 245.657Z" fill="white"/>
<path d="M0 226.733H11.4266V269.989H0V226.733Z" fill="white"/>
<path d="M75.827 287.202C76.3977 288.582 75.1112 288.168 74.7116 288.565C74.7641 288.782 74.8134 288.98 74.8659 289.182C75.3595 291.307 74.4293 292.545 72.231 292.67C71.6679 292.702 71.1002 292.67 70.5341 292.717C70.045 292.761 69.6085 292.977 69.5977 293.546C69.5869 294.115 70.0018 294.336 70.5032 294.377C71.0647 294.422 71.6293 294.427 72.1924 294.45C72.7046 294.471 73.2198 294.458 73.7258 294.525C74.8736 294.68 75.3256 295.075 75.449 295.946C75.6033 296.994 75.25 297.851 74.3367 298.26C73.4948 298.647 72.5811 298.853 71.6546 298.866C70.7281 298.878 69.8093 298.696 68.9574 298.331C67.7434 297.838 67.7017 296.295 68.7831 295.483C68.9374 295.363 69.1241 295.268 69.4418 295.067C68.8525 294.701 68.1321 294.38 68.362 293.638C68.5162 293.117 68.9312 292.671 69.212 292.221C68.9251 291.644 68.4005 290.977 68.2679 290.241C67.9778 288.617 68.9466 287.423 70.5819 287.233C71.2965 287.171 72.0153 287.174 72.7293 287.243C73.2353 287.276 73.7336 287.492 74.2349 287.491C74.7363 287.489 75.2238 287.32 75.827 287.202ZM73.7366 289.919C73.7366 288.66 73.0625 288.037 71.6803 288.023C70.2286 288.008 69.4943 288.676 69.5205 289.984C69.5514 291.192 70.3042 291.835 71.6602 291.824C73.0162 291.813 73.7351 291.166 73.7366 289.919ZM71.7528 297.975C72.2834 297.847 72.9684 297.79 73.5361 297.501C73.8631 297.335 74.1532 296.798 74.1686 296.421C74.1809 296.138 73.7474 295.604 73.4775 295.579C72.3703 295.467 71.2544 295.472 70.1484 295.595C69.826 295.636 69.4002 296.29 69.3616 296.696C69.3323 297.005 69.7828 297.483 70.133 297.662C70.5587 297.876 71.1095 297.862 71.7528 297.975Z" fill="white"/>
<path d="M193.844 295.069C192.214 293.902 192.638 292.937 193.912 292.272C193.567 291.789 193.085 291.346 192.889 290.801C192.272 289.074 193.331 287.44 195.163 287.23C195.827 287.175 196.494 287.175 197.158 287.23C198.204 287.284 199.247 287.384 200.373 287.462C200.617 288.128 200.617 288.128 199.324 288.52C199.384 289.001 199.478 289.493 199.501 289.989C199.554 291.531 198.838 292.411 197.311 292.62C196.604 292.718 195.878 292.66 195.162 292.707C194.602 292.744 194.139 292.958 194.171 293.632C194.201 294.229 194.664 294.368 195.146 294.393C196.016 294.436 196.888 294.421 197.758 294.473C199.276 294.564 199.909 295.018 200.029 296.043C200.175 297.288 199.503 298.317 198.085 298.54C196.851 298.732 195.554 298.652 194.29 298.59C193.4 298.547 192.738 298.063 192.565 297.117C192.4 296.215 192.874 295.666 193.645 295.297C193.724 295.247 193.778 295.143 193.844 295.069ZM198.303 289.978C198.332 288.736 197.635 288.06 196.288 288.028C194.844 287.994 194.165 288.538 194.104 289.776C194.037 291.115 194.745 291.82 196.163 291.829C197.505 291.832 198.273 291.166 198.301 289.972L198.303 289.978ZM196.348 295.476V295.409C195.788 295.456 195.183 295.389 194.685 295.59C194.338 295.729 193.988 296.207 193.922 296.585C193.869 296.881 194.17 297.44 194.451 297.56C195.676 298.081 196.967 298.12 198.153 297.457C198.462 297.284 198.73 296.662 198.661 296.32C198.591 295.977 198.105 295.636 197.735 295.51C197.306 295.362 196.809 295.47 196.348 295.47V295.476Z" fill="white"/>
<path d="M229.634 291.115C229.634 291.957 229.634 292.915 229.634 293.871C229.634 294.229 229.692 294.621 229.563 294.933C229.479 295.14 229.122 295.318 228.871 295.343C228.692 295.362 228.456 295.129 228.305 294.956C228.223 294.862 228.249 294.661 228.249 294.509C228.249 291.129 228.249 287.75 228.249 284.307C228.581 284.205 228.866 284.049 229.138 284.048C230.835 284.038 232.521 284.011 234.208 284.092C235.989 284.179 236.786 284.996 236.993 286.75C237.302 289.382 236.146 290.732 233.485 290.815C232.36 290.851 231.233 290.848 230.108 290.874C230.015 290.874 229.928 290.959 229.634 291.115ZM229.707 289.66C231.219 289.66 232.544 289.746 233.851 289.634C234.988 289.535 235.548 288.719 235.586 287.474C235.622 286.275 235.136 285.442 234.145 285.257C232.694 284.986 231.23 285.029 229.707 285.211V289.66Z" fill="white"/>
<path d="M49.0755 295.008C48.9011 293.97 49.4318 293.969 50.0674 294.044C51.0781 294.19 52.0955 294.286 53.1157 294.33C53.6758 294.322 54.2275 294.192 54.7324 293.95C55.4421 293.623 55.7568 292.978 55.7336 292.187C55.709 291.36 55.2354 290.842 54.4995 290.595C53.9225 290.4 53.3039 290.325 52.7023 290.203C52.1516 290.092 51.5854 290.032 51.047 289.876C49.4858 289.425 48.7638 288.487 48.7654 287C48.7654 285.458 49.5583 284.49 51.1612 284.051C52.7995 283.602 54.4162 283.852 56.0237 284.205C56.5775 284.328 56.7827 284.689 56.3939 285.399C55.7691 285.3 55.0795 285.12 54.3884 285.101C53.4273 285.077 52.4431 285.07 51.5067 285.256C51.1184 285.312 50.7652 285.511 50.517 285.815C50.2687 286.119 50.1436 286.505 50.1661 286.897C50.1627 287.261 50.2786 287.616 50.4962 287.908C50.7138 288.2 51.0211 288.413 51.371 288.514C52.0563 288.719 52.7526 288.887 53.4566 289.015C53.9056 289.111 54.3715 289.135 54.8157 289.25C56.4726 289.675 57.1298 290.462 57.1791 292.012C57.2254 293.598 56.5389 294.711 55.0333 295.181C53.071 295.803 51.0994 295.562 49.0755 295.008Z" fill="white"/>
<path d="M101.775 287.27C101.775 286.345 101.775 285.573 101.775 284.814C101.775 284.055 102.214 283.889 102.946 283.898C103.022 284.254 103.073 284.615 103.1 284.978C103.111 287.852 103.118 290.724 103.1 293.598C103.1 294.902 102.821 295.264 101.537 295.413C100.519 295.516 99.4939 295.53 98.4735 295.453C97.2548 295.374 96.394 294.643 96.2567 293.464C96.0954 292.095 96.0954 290.712 96.2567 289.344C96.4109 288.037 97.3643 287.338 98.7249 287.218C99.2385 287.184 99.7535 287.178 100.268 287.201C100.709 287.202 101.165 287.238 101.775 287.27ZM101.707 288.45C101.293 288.332 100.959 288.208 100.615 288.142C100.312 288.088 100.005 288.066 99.6984 288.077C98.33 288.114 97.6512 288.575 97.4923 289.928C97.3628 291.022 97.4923 292.156 97.5972 293.262C97.6301 293.574 97.7656 293.866 97.9826 294.093C98.1996 294.319 98.4857 294.467 98.7959 294.513C99.7894 294.704 100.801 294.789 101.707 294.195V288.45Z" fill="white"/>
<path d="M119.816 287.196C119.816 286.391 119.816 285.634 119.816 284.882C119.816 284.2 120.113 283.826 120.932 283.957C120.99 284.299 121.029 284.644 121.049 284.99C121.058 287.859 121.058 290.727 121.049 293.595C121.049 294.92 120.801 295.258 119.523 295.413C118.559 295.53 117.586 295.548 116.618 295.467C115.17 295.342 114.32 294.595 114.159 293.173C114.017 291.953 114.025 290.721 114.184 289.504C114.385 288.032 115.327 287.315 116.831 287.207C117.34 287.17 117.856 287.207 118.374 287.207L119.816 287.196ZM119.779 288.383C119.008 288.267 118.363 288.096 117.718 288.091C116.285 288.08 115.623 288.633 115.464 290.044C115.356 290.956 115.361 291.877 115.48 292.787C115.71 294.438 118.138 295.362 119.451 294.33C119.635 294.162 119.746 293.929 119.759 293.68C119.792 291.957 119.779 290.229 119.779 288.389V288.383Z" fill="white"/>
<path d="M110.497 290.2C110.775 288.666 110.549 288.23 109.227 288.184C108.121 288.145 107.006 288.356 105.872 288.46C105.611 288.046 105.576 287.599 106.142 287.545C107.608 287.379 109.083 287.306 110.559 287.327C111.392 287.354 111.955 288.009 111.976 288.892C112.018 290.633 112.007 292.378 111.99 294.121C111.99 294.86 111.466 295.289 110.824 295.34C109.554 295.443 108.263 295.522 107.001 295.4C105.798 295.285 105.182 294.388 105.15 293.129C105.113 291.823 105.613 291.169 106.944 290.876C108.129 290.613 109.335 290.417 110.497 290.2ZM110.628 291.183C109.513 291.369 108.61 291.525 107.706 291.673C106.935 291.798 106.52 292.216 106.52 293.018C106.52 293.821 106.91 294.416 107.737 294.549C108.686 294.703 109.665 294.811 110.628 294.254V291.183Z" fill="white"/>
<path d="M267.447 292.153H262.057C262.034 293.747 262.552 294.467 263.897 294.567C264.699 294.632 265.518 294.433 266.333 294.398C266.626 294.385 266.925 294.499 267.22 294.552L267.263 294.902C266.928 295.069 266.604 295.354 266.259 295.382C265.24 295.485 264.215 295.503 263.194 295.433C261.815 295.305 260.895 294.472 260.716 293.094C260.566 291.925 260.561 290.741 260.701 289.57C260.877 288.097 261.813 287.348 263.3 287.199C266.737 286.862 268.092 288.373 267.447 292.153ZM266.24 291.073C266.348 290.013 266.395 289.023 265.441 288.42C265.052 288.166 264.598 288.029 264.133 288.025C263.668 288.022 263.212 288.152 262.819 288.4C261.844 288.983 261.875 289.976 261.961 291.073H266.24Z" fill="white"/>
<path d="M150.841 295.106C149.144 295.679 147.424 295.817 145.709 295.062C144.902 294.708 144.459 293.932 144.385 293.097C144.261 291.924 144.257 290.742 144.374 289.569C144.545 288.105 145.485 287.346 146.98 287.206C147.339 287.177 147.699 287.169 148.06 287.182C150.242 287.23 151.225 288.196 151.324 290.397C151.347 290.896 151.324 291.395 151.324 292.108H145.727C145.704 293.757 146.218 294.462 147.569 294.576C148.371 294.64 149.192 294.442 150.006 294.405C150.299 294.391 150.597 294.505 150.892 294.559L150.841 295.106ZM149.929 291.095C149.974 289.964 150.059 288.953 149.05 288.378C148.198 287.894 147.231 287.887 146.427 288.434C145.53 289.043 145.476 290.013 145.656 291.095H149.929Z" fill="white"/>
<path d="M66.1698 292.113H60.6455C60.4681 293.589 60.934 294.374 62.1882 294.532C63.032 294.637 63.9129 294.472 64.7752 294.396C65.1871 294.359 65.6191 294.191 65.6823 294.834C64.3865 295.76 61.5727 295.82 60.337 294.95C58.6555 293.765 58.5182 288.998 60.1904 287.801C61.5125 286.855 63.0305 286.983 64.4713 287.48C65.8489 287.955 66.1282 289.177 66.1683 290.481C66.1822 290.936 66.1698 291.392 66.1698 292.113ZM60.4357 291.098H64.7027C64.874 290.03 64.9064 289.054 63.9731 288.434C63.5867 288.175 63.1341 288.032 62.669 288.023C62.204 288.015 61.7463 288.14 61.3505 288.384C60.3663 288.952 60.3755 289.952 60.4357 291.098Z" fill="white"/>
<path d="M283.16 291.391C283.16 291.34 283.16 291.287 283.16 291.237C283.179 287.928 284.714 286.639 287.952 287.241C289.104 287.455 289.917 288.08 290.195 289.279C290.539 290.68 290.53 292.144 290.17 293.541C289.877 294.65 289.134 295.3 288.011 295.451C284.529 295.914 283.076 294.836 283.16 291.391ZM284.516 291.22H284.564C284.564 291.682 284.526 292.145 284.564 292.608C284.705 294.029 285.362 294.613 286.761 294.626C288.16 294.638 288.884 294.052 289.007 292.662C289.076 291.844 289.08 291.023 289.018 290.205C288.91 288.719 288.171 288.063 286.739 288.083C285.388 288.103 284.705 288.745 284.563 290.149C284.532 290.501 284.532 290.857 284.516 291.22Z" fill="white"/>
<path d="M211.365 290.184C211.568 288.662 211.378 288.264 210.144 288.204C209.032 288.15 207.906 288.347 206.659 288.444C206.383 288.11 206.243 287.625 206.926 287.546C208.393 287.378 209.884 287.252 211.354 287.331C212.323 287.381 212.724 288.009 212.751 289.052C212.793 290.697 212.751 292.343 212.77 293.989C212.781 294.819 212.321 295.289 211.594 295.346C210.322 295.447 209.027 295.522 207.762 295.394C206.564 295.274 205.991 294.384 205.981 293.08C205.97 291.744 206.359 291.192 207.654 290.896C208.856 290.619 210.073 290.428 211.365 290.184ZM211.414 294.518V291.181C210.365 291.357 209.459 291.471 208.574 291.669C207.597 291.886 207.292 292.286 207.321 293.092C207.351 293.899 207.838 294.513 208.754 294.586C209.597 294.652 210.451 294.55 211.417 294.518H211.414Z" fill="white"/>
<path d="M255.934 294.45C256.08 294.032 256.242 293.622 256.369 293.196C256.832 291.57 257.282 289.942 257.708 288.307C257.918 287.505 258.314 287.159 259.237 287.58C259.166 287.903 259.115 288.238 259.016 288.557C258.188 291.247 257.372 293.944 256.508 296.624C255.869 298.606 254.811 299.049 252.467 298.2C252.864 297.963 253.085 297.737 253.35 297.688C255.014 297.406 255.016 297.42 255.391 295.744C255.075 295.45 254.595 295.214 254.465 294.851C253.614 292.457 252.838 290.035 252.039 287.627C253.009 287.133 253.427 287.5 253.648 288.275C254.123 289.896 254.595 291.514 255.087 293.134C255.227 293.597 255.432 294.03 255.608 294.478L255.934 294.45Z" fill="white"/>
<path d="M243.619 291.414C243.619 291.311 243.619 291.209 243.619 291.105C243.525 287.178 245.831 286.919 248.512 287.28C249.674 287.434 250.527 288.205 250.635 289.405C250.768 290.723 250.763 292.052 250.618 293.369C250.464 294.641 249.621 295.298 248.304 295.463C244.609 295.931 243.506 294.507 243.619 291.414ZM249.499 291.346L249.597 291.335C249.499 290.68 249.476 290.002 249.288 289.376C249.015 288.467 248.193 288.032 247.094 288.08C245.996 288.128 245.206 288.623 245.104 289.623C245.008 290.793 245.008 291.97 245.104 293.14C245.151 293.87 245.683 294.32 246.372 294.529C248.06 295.048 249.344 294.181 249.496 292.418C249.526 292.065 249.499 291.704 249.499 291.346Z" fill="white"/>
<path d="M190.819 291.309C190.819 291.463 190.819 291.618 190.819 291.772C190.952 295.692 188.062 295.979 185.343 295.261C184.499 295.039 184.016 294.328 183.8 293.476C183.449 292.076 183.455 290.609 183.819 289.211C183.88 288.962 183.98 288.724 184.115 288.506C185.087 286.973 186.629 287.118 188.113 287.226C189.488 287.324 190.313 288.031 190.629 289.328C190.784 289.968 190.795 290.646 190.869 291.306L190.819 291.309ZM189.543 291.352C189.503 290.914 189.485 290.399 189.406 289.894C189.218 288.683 188.559 288.123 187.317 288.079C186.022 288.032 185.192 288.614 185.022 289.847C184.916 290.712 184.899 291.585 184.969 292.454C185.073 293.979 185.765 294.613 187.196 294.613C188.666 294.613 189.27 294.052 189.446 292.492C189.486 292.144 189.508 291.783 189.543 291.352Z" fill="white"/>
<path d="M177.346 291.406C177.346 291.457 177.346 291.508 177.346 291.561C177.36 294.243 176.729 295.968 172.662 295.462C171.243 295.285 170.411 294.499 170.262 293.08C170.144 291.966 170.231 290.831 170.231 289.706C170.234 289.602 170.25 289.498 170.279 289.398C170.671 287.789 171.767 287.128 173.981 287.175C175.908 287.215 176.931 287.946 177.221 289.564C177.327 290.167 177.336 290.788 177.39 291.399L177.346 291.406ZM176.025 291.354H176.096C176.036 290.795 176.028 290.225 175.902 289.68C175.639 288.549 174.863 288.034 173.622 288.085C172.428 288.134 171.736 288.608 171.602 289.774C171.501 290.891 171.508 292.014 171.624 293.129C171.696 294.006 172.338 294.445 173.176 294.593C174.842 294.888 175.84 294.131 176.017 292.434C176.039 292.075 176.041 291.715 176.025 291.355V291.354Z" fill="white"/>
<path d="M166.818 295.226C166.818 293.484 166.818 291.849 166.818 290.214C166.809 288.327 166.263 287.864 164.381 288.148C163.88 288.224 163.386 288.356 162.74 288.494C162.701 288.987 162.635 289.479 162.629 289.972C162.613 291.457 162.629 292.943 162.618 294.428C162.618 295.227 162.297 295.592 161.302 295.186C161.302 293.06 161.302 290.866 161.302 288.679C161.287 288.416 161.376 288.157 161.549 287.958C161.721 287.759 161.965 287.635 162.227 287.613C163.639 287.429 165.066 287.253 166.485 287.264C167.449 287.264 167.989 287.87 168.028 288.855C168.107 290.798 168.083 292.745 168.068 294.692C168.056 295.454 167.56 295.443 166.818 295.226Z" fill="white"/>
<path d="M84.2762 287.332C84.2762 289.375 84.3548 291.414 84.2453 293.444C84.1836 294.604 83.4076 295.229 82.2398 295.45C81.9849 295.495 81.7272 295.523 81.4685 295.533C78.1579 295.698 77.4576 294.632 77.5301 291.915C77.5609 290.681 77.5146 289.447 77.5563 288.224C77.581 287.502 77.6273 287.503 78.8074 287.263C78.8074 288.1 78.8074 288.901 78.8074 289.7C78.8074 290.626 78.7889 291.551 78.8074 292.477C78.8521 294.112 79.4908 294.703 81.0952 294.637C82.425 294.58 82.9464 294.098 82.985 292.748C83.0297 291.263 82.9757 289.774 83.0158 288.287C83.0498 287.435 83.096 287.437 84.2762 287.332Z" fill="white"/>
<path d="M144.4 284.043C144.681 285.077 144.181 285.162 143.618 285.172C143.155 285.182 142.693 285.172 142.23 285.172C141.767 285.172 141.32 285.212 140.658 285.243C140.448 288.588 140.692 291.897 140.516 295.166C139.316 295.32 139.269 295.32 139.256 294.3C139.223 292.141 139.243 289.993 139.242 287.841C139.242 287.03 139.242 286.218 139.242 285.242C138.112 285.214 137.159 285.192 136.207 285.166C135.633 285.149 135.15 285.041 135.457 284.066C138.389 283.975 141.38 284.029 144.4 284.043Z" fill="white"/>
<path d="M297.703 288.329C297.25 288.281 296.759 288.202 296.269 288.182C295.761 288.144 295.251 288.157 294.746 288.221C294.106 288.324 293.551 288.622 293.535 289.388C293.52 290.155 294.061 290.447 294.703 290.59C295.203 290.703 295.715 290.763 296.216 290.866C297.781 291.192 298.265 291.792 298.199 293.273C298.141 294.564 297.478 295.278 296.084 295.462C294.76 295.635 293.444 295.644 291.945 294.797C292.398 294.567 292.654 294.325 292.898 294.334C293.515 294.361 294.11 294.567 294.718 294.58C295.215 294.589 295.798 294.552 296.188 294.294C296.382 294.152 296.544 293.971 296.663 293.762C296.782 293.554 296.856 293.322 296.88 293.083C296.88 292.745 296.449 292.256 296.091 292.097C295.544 291.854 294.896 291.84 294.293 291.724C292.893 291.456 292.164 290.683 292.179 289.49C292.196 288.242 293.032 287.349 294.444 287.229C295.314 287.173 296.187 287.193 297.054 287.289C297.503 287.332 298.009 287.491 297.703 288.329Z" fill="white"/>
<path d="M278.833 284.802L279.043 287.195L281.494 287.503C281.278 288.139 281.278 288.139 278.961 288.512C278.961 290.155 278.946 291.83 278.961 293.506C278.972 294.277 279.484 294.567 280.188 294.586C280.686 294.6 281.184 294.586 281.658 294.586C281.707 294.797 281.781 294.944 281.744 294.981C280.847 295.886 279.739 295.565 278.745 295.335C277.82 295.121 277.629 294.237 277.629 293.362C277.629 290.848 277.639 288.333 277.629 285.817C277.624 285.1 277.778 284.609 278.833 284.802Z" fill="white"/>
<path d="M159.367 295.049C157.681 295.666 156.092 295.791 154.559 295.064C154.073 294.834 153.624 294.209 153.462 293.676C152.993 292.144 153 290.507 153.48 288.98C153.649 288.499 153.951 288.076 154.35 287.759C155.453 286.883 157.942 286.976 159.318 287.929C159.108 288.083 158.944 288.287 158.747 288.327C158.508 288.375 158.241 288.289 157.988 288.25C155.399 287.847 154.474 288.626 154.44 291.25C154.44 291.456 154.44 291.661 154.46 291.868C154.628 294.103 155.56 294.848 157.792 294.563C158.227 294.52 158.665 294.508 159.102 294.527C159.143 294.526 159.188 294.694 159.367 295.049Z" fill="white"/>
<path d="M275.713 287.864C275.48 288.074 275.361 288.27 275.207 288.302C274.954 288.336 274.697 288.326 274.448 288.275C271.598 287.875 270.699 288.682 270.79 291.581C270.804 291.991 270.856 292.399 270.944 292.799C271.214 294.033 271.804 294.552 273.073 294.586C273.628 294.601 274.187 294.441 274.747 294.422C275.032 294.413 275.322 294.544 275.611 294.61L275.629 294.919C275.345 295.073 275.072 295.348 274.775 295.382C273.909 295.481 273.037 295.508 272.168 295.462C270.724 295.36 269.824 294.617 269.653 293.214C269.51 291.993 269.51 290.759 269.653 289.538C269.807 288.14 270.733 287.331 272.131 287.233C273.303 287.155 274.551 286.95 275.713 287.864Z" fill="white"/>
<path d="M219.871 297.776C219.84 297.313 219.777 296.82 219.777 296.32C219.769 292.575 219.769 288.83 219.777 285.084C219.764 284.93 219.764 284.776 219.777 284.622C219.856 284.168 219.582 283.448 220.394 283.469C221.06 283.486 220.928 284.122 220.929 284.549C220.943 288.653 220.943 292.757 220.929 296.861C220.929 297.461 220.891 298.061 219.871 297.776Z" fill="white"/>
<path d="M129.085 298.094C128.637 297.799 128.313 297.679 128.15 297.447C128.02 297.27 128.06 296.954 128.06 296.699C128.06 292.699 128.05 288.7 128.06 284.7C128.06 284.237 127.863 283.488 128.602 283.485C129.455 283.485 129.188 284.293 129.193 284.782C129.222 287.756 129.208 290.731 129.208 293.703C129.208 294.629 129.219 295.554 129.208 296.472C129.203 296.923 129.14 297.37 129.085 298.094Z" fill="white"/>
<path d="M182.193 295.155C180.232 295.835 179.487 295.372 179.474 293.497C179.457 290.68 179.474 287.861 179.464 285.044C179.464 284.324 179.618 283.83 180.689 283.964C180.689 284.436 180.689 284.93 180.689 285.422C180.689 287.83 180.732 290.238 180.67 292.645C180.642 293.737 180.824 294.553 182.058 294.766C182.099 294.775 182.119 294.944 182.193 295.155Z" fill="white"/>
<path d="M90.8171 287.341C90.7184 287.542 88.6049 288.484 88.1035 288.636V295.067C86.8972 295.419 86.7583 295.394 86.7398 294.59C86.6951 292.648 86.7198 290.704 86.7321 288.762C86.7321 288.122 87.0792 287.715 87.6978 287.543C88.682 287.27 89.6694 287.017 90.8171 287.341Z" fill="white"/>
<path d="M242.69 287.351C242.28 288.848 240.765 287.912 239.926 288.784V295.177C239.194 295.428 238.676 295.53 238.667 294.644C238.647 292.647 238.667 290.649 238.667 288.651C238.667 288.034 239.005 287.705 239.545 287.55C240.521 287.267 241.51 287.016 242.69 287.351Z" fill="white"/>
<path d="M202.358 287.639C203.158 287.377 203.659 287.386 203.667 288.147C203.691 290.306 203.696 292.466 203.651 294.626C203.651 294.879 203.318 295.28 203.073 295.342C202.564 295.467 202.358 295.086 202.358 294.601C202.358 292.29 202.358 289.984 202.358 287.639Z" fill="white"/>
<path d="M92.4709 287.548H93.6804C93.6804 288.565 93.6804 289.526 93.6804 290.488C93.6804 291.877 93.7005 293.265 93.6403 294.641C93.6083 294.795 93.5391 294.938 93.4387 295.059C93.3384 295.179 93.21 295.273 93.0649 295.332C92.6144 295.443 92.4725 295.058 92.4709 294.655C92.4709 292.307 92.4709 289.959 92.4709 287.548Z" fill="white"/>
<path d="M201.359 285.442L203.775 283.631C203.866 284.12 204.062 284.557 203.949 284.665C203.415 285.136 202.834 285.55 202.214 285.899C202.096 285.97 201.772 285.674 201.359 285.442Z" fill="white"/>
<path d="M92.5417 283.904H93.5661V285.755H92.5417V283.904Z" fill="white"/>
</g>
<defs>
<clipPath id="clip0_64_292">
<rect width="346.998" height="298.674" fill="white" transform="translate(0 0.191406)"/>
</clipPath>
</defs>
</svg>
