<?xml version="1.0" encoding="utf-8"?>
<!-- Generator: Adobe Illustrator 21.1.0, SVG Export Plug-In . SVG Version: 6.00 Build 0)  -->
<svg version="1.1" id="Layer_1" xmlns="http://www.w3.org/2000/svg" xmlns:xlink="http://www.w3.org/1999/xlink" x="0px" y="0px"
	 viewBox="0 0 2249.3 474.5" style="enable-background:new 0 0 2249.3 474.5;" xml:space="preserve">
<style type="text/css">
	.st0{fill:#FFFDFD;}
</style>
<title>logoNew</title>
<path class="st0" d="M851.6,286.3h-9.5c-17.7,0-35.3-0.4-53,0.2c-7.9,0.3-12.5-2.2-16.7-9.1c-28.7-46.9-57.8-93.5-86.8-140.1
	c-2.1-3.5-4.6-6.8-7.5-9.6c-2.3,26.2-1.4,52.2-1.6,78.2c-0.2,26.3,0,52.6,0,80c-25.1,1.1-49.5,0.3-74.6,0.5V5.1
	c4-0.2,7.5-0.6,11.1-0.6c17.3-0.1,34.7,0.4,52-0.2c8.6-0.3,13.8,2.3,18.5,9.8c28.3,44.8,57.2,89.1,85.9,133.6c1.9,3,4,5.8,7.2,10.3
	c2.6-11.7,1.1-21.5,1.4-31.2c0.3-10,0.1-20,0.1-30V4.7c25.3-0.3,49.4-0.2,73.2-0.1C854.3,13,854.6,275.9,851.6,286.3z"/>
<path class="st0" d="M275.7,145.8c0-61,39.5-121.7,104.2-140.3C458-17.1,539.5,32.5,556.6,112.6c15.1,70.6-20.5,140.5-85.1,167.2
	c-78.6,32.6-168.8-13.2-189.9-96.8C278.6,170.9,277.7,158.2,275.7,145.8z M490.1,145.2c0-40.5-31.8-73.2-71.4-73.5
	c-39.3-0.3-71.9,32.8-72,73.1c-0.1,40.8,32.5,74.4,72.1,74.2C458.1,218.7,490,185.7,490.1,145.2z"/>
<path class="st0" d="M1566.6,0.1c68.8,0,128.5,49.7,139.9,116.6c9.7,56.7-6.4,105.2-51,142.2c-60,49.7-148,39.7-197.1-21.1
	c-64.2-79.4-29.1-200.6,67-231.2C1538.8,2.4,1552.7,0.2,1566.6,0.1z M1639.5,145.7c0.1-40.9-32.4-74.3-72.1-74s-71.3,32.9-71.3,73.6
	c0,40.4,32.1,73.5,71.4,73.7C1606.6,219.1,1639.4,185.8,1639.5,145.7L1639.5,145.7z"/>
<path class="st0" d="M1242.9,64.6v221.1h-73.7c-2-7.2-2.8-263.6-0.7-280.4c2.9-0.2,6.1-0.7,9.3-0.7c42.3,0,84.6-0.3,126.9,0
	c56.5,0.4,96.9,48.2,88.8,104.2c-4,28-17.2,50-40.9,65.6c-1.1,0.7-2.1,1.6-4.3,3.2c9.5,17.7,19,35.4,28.6,53.2
	c9.6,17.8,19.2,35.6,29.9,55.3c-27.8,0.2-53.8,0.1-80.9,0.1l-75.3-151.1c10.4,0,19,0.2,27.6-0.1c5,0,9.9-0.6,14.8-1.8
	c20.2-5.6,30.6-23.8,25.6-44.1c-3.4-14-13.7-23.6-28.1-24.3C1275.3,64.1,1259.9,64.6,1242.9,64.6z"/>
<path class="st0" d="M2175.9,285.6l-63.3-183.7l-2.5-0.1c-11.1,30.4-21.3,61.1-31.9,91.7c-10.7,30.7-21.3,61.5-32,92.4h-71.3
	c-0.3-0.5-0.5-0.7-0.7-1s-0.4-0.6-0.3-0.9c0.5-1.9,1-3.8,1.7-5.7c35.7-90,71.4-180.1,107.2-270.4h59.3l107.4,276.4
	C2241.3,286.7,2196.5,287.4,2175.9,285.6z"/>
<path class="st0" d="M1119.9,68.7h-71.6v216.9h-74.8c-0.3-4.2-0.8-8.4-0.8-12.6c-0.1-63.6-0.1-127.3-0.1-190.9
	c0-4.2-0.4-8.5-0.7-13.4h-70.4c-2.2-8.3-2.5-53.6-0.5-63c8.1-2.1,209.1-2.3,218.9,0V68.7z"/>
<path class="st0" d="M1749.5,5h73.3c0.3,4.5,0.8,8.6,0.8,12.8c0.1,62.6,0.1,125.2,0,187.8c0,4.3,0,8.6,0,14
	c4.7,0.4,8.5,0.9,12.3,0.9c28,0.1,56,0.1,83.9,0h12.4v65.1h-182.5C1747.7,277.8,1747.3,16.5,1749.5,5z"/>
<path class="st0" d="M90.3,127.8L125,84.3c19.5-24.5,39.1-48.9,58.5-73.4c3.3-4.2,6.7-6.6,12.4-6.5c23.6,0.3,47.3,0.1,70.9,0.2
	c1.9,0,3.7,0.4,7.3,0.8l-95.4,122.9l104.9,157.5c-4.1,0.3-6.3,0.5-8.5,0.5c-25,0-50-0.1-75,0.1c-5.1,0-8.6-1.2-11.5-5.8
	c-31.8-49.2-63.7-98.4-95.7-147.5C92.2,131.7,91.6,130.2,90.3,127.8z"/>
<path class="st0" d="M0,5.2h74.1v280.4H0V5.2z"/>
<path class="st0" d="M1308.3,465.7c-0.2-3-0.6-6.2-0.6-9.4c-0.1-24.3-0.1-48.6,0-72.8c-0.1-1-0.1-2,0-3c0.5-2.9-1.3-7.6,4-7.5
	c4.3,0.1,3.5,4.2,3.5,7c0.1,26.6,0.1,53.2,0,79.8C1315.1,463.6,1314.9,467.5,1308.3,465.7z"/>
<path class="st0" d="M719.8,467.7c-2.9-1.9-5-2.7-6.1-4.2c-0.8-1.2-0.6-3.2-0.6-4.8c0-25.9-0.1-51.9,0-77.8c0-3-1.3-7.9,3.5-7.9
	c5.5,0,3.8,5.2,3.8,8.4c0.2,19.3,0.1,38.6,0.1,57.8c0,6,0.1,12,0,18C720.5,460.2,720.1,463.1,719.8,467.7z"/>
<path class="st0" d="M1427.7,420.7c-0.5-10-1.2-22-1.1-31h-0.3c-2.4,8.4-5.4,17.4-9,27.3l-12.7,34.9h-7l-11.6-34.2
	c-3.4-10.1-6.3-19.4-8.3-27.9h-0.2c-0.2,8.9-0.8,21-1.4,31.7l-2,30.7h-8.8l5-71.7h11.8l12.2,34.7c3,8.8,5.4,16.7,7.2,24.2h0.3
	c1.8-7.2,4.4-15.1,7.6-24.2l12.8-34.7h11.8l4.5,71.7h-9L1427.7,420.7z"/>
<path class="st0" d="M1481.6,452.2l-0.8-6.5h-0.3c-3.7,4.9-9.6,7.8-15.8,7.7c-10.4,0-15.8-7.3-15.8-14.8c0-12.5,11.1-19.3,31-19.2
	v-1.1c0-4.3-1.2-11.9-11.7-11.9c-4.7,0-9.4,1.3-13.4,3.8l-2.1-6.2c5.1-3.1,11-4.7,16.9-4.6c15.8,0,19.6,10.8,19.6,21.1v19.2
	c-0.1,4.1,0.2,8.3,0.8,12.3L1481.6,452.2z M1480.3,425.9c-10.2-0.2-21.8,1.6-21.8,11.6c0,6.1,4,8.9,8.8,8.9
	c5.6,0.1,10.6-3.3,12.5-8.6c0.3-1,0.5-2,0.5-3V425.9z"/>
<path class="st0" d="M1504.4,414.6c0-5.3-0.1-9.7-0.4-13.9h8.3l0.5,8.5h0.2c3.4-6.1,10-9.9,17-9.7c7.1,0,18.2,4.3,18.2,21.9v30.8
	h-9.4v-29.7c0-8.3-3.1-15.2-11.9-15.2c-5.8,0.1-10.9,4-12.5,9.5c-0.5,1.4-0.7,2.9-0.6,4.4v31h-9.4V414.6z"/>
<path class="st0" d="M1574.3,385.9v14.8h13.4v7.1h-13.4v27.8c0,6.4,1.8,10,7,10c1.8,0,3.7-0.2,5.4-0.6l0.4,7
	c-2.7,0.9-5.5,1.4-8.3,1.3c-4.4,0-7.9-1.4-10.1-3.9c-2.7-2.8-3.6-7.3-3.6-13.4v-28.1h-8v-7.1h8v-12.4L1574.3,385.9z"/>
<path class="st0" d="M1602.9,428.2c0.2,12.7,8.3,17.9,17.7,17.9c4.9,0.2,9.8-0.8,14.3-2.7l1.6,6.7c-3.3,1.5-8.9,3.2-17.1,3.2
	c-15.9,0-25.3-10.4-25.3-26s9.2-27.7,24.2-27.7c16.8,0,21.3,14.8,21.3,24.3c0,1.5-0.1,2.9-0.3,4.4H1602.9z M1630.3,421.5
	c0.1-6-2.4-15.2-13-15.2c-9.5,0-13.6,8.7-14.4,15.2H1630.3z"/>
<path class="st0" d="M1651,414.6c0-5.3-0.1-9.7-0.4-13.9h8.3l0.5,8.5h0.2c3.4-6.1,10-9.9,17-9.7c7.1,0,18.2,4.3,18.2,21.9v30.8h-9.4
	v-29.7c0-8.3-3.1-15.2-11.9-15.2c-5.8,0.1-10.9,4-12.6,9.6c-0.5,1.4-0.7,2.9-0.6,4.4v31h-9.4L1651,414.6z"/>
<path class="st0" d="M1720.5,386.2c0.1,3.2-2.2,5.8-6,5.8c-3.1,0-5.6-2.4-5.6-5.5c0-0.1,0-0.2,0-0.3c-0.1-3.2,2.4-5.8,5.6-5.9
	c0.1,0,0.2,0,0.3,0c3.1-0.1,5.7,2.2,5.8,5.3C1720.5,385.9,1720.5,386.1,1720.5,386.2z M1710.1,452.2v-51.5h9.4v51.5H1710.1z"/>
<path class="st0" d="M1735,414.6c0-5.3-0.1-9.7-0.4-13.9h8.2l0.4,8.3h0.3c2.9-4.9,7.7-9.5,16.2-9.5c6.6-0.1,12.5,4.1,14.6,10.3h0.2
	c1.4-2.6,3.4-4.9,5.8-6.7c3.3-2.5,7.3-3.8,11.4-3.6c6.8,0,16.9,4.5,16.9,22.4v30.3h-9.2v-29.1c0-9.9-3.6-15.9-11.2-15.9
	c-5.3,0-9.5,3.9-11.1,8.5c-0.5,1.5-0.7,3.1-0.8,4.7v31.8h-9.2v-30.9c0-8.2-3.6-14.2-10.8-14.2c-5.8,0-10.1,4.7-11.6,9.4
	c-0.5,1.5-0.8,3-0.8,4.6v31.1h-9.2V414.6z"/>
<path class="st0" d="M1834.2,386.2c0.1,3.2-2.2,5.8-6,5.8c-3.1,0-5.6-2.4-5.6-5.5c0-0.1,0-0.2,0-0.3c-0.1-3.2,2.4-5.8,5.6-5.9
	c0.1,0,0.2,0,0.3,0c3.1-0.1,5.7,2.2,5.8,5.3C1834.2,385.9,1834.2,386.1,1834.2,386.2z M1823.8,452.2v-51.5h9.4v51.5H1823.8z"/>
<path class="st0" d="M1853.9,428.2c0.2,12.7,8.3,17.9,17.7,17.9c4.9,0.2,9.8-0.8,14.3-2.7l1.6,6.7c-3.3,1.5-8.9,3.2-17.1,3.2
	c-15.9,0-25.3-10.4-25.3-26s9.2-27.7,24.2-27.7c16.8,0,21.3,14.8,21.3,24.3c0,1.5-0.1,2.9-0.3,4.4H1853.9z M1881.3,421.5
	c0.1-6-2.4-15.2-13-15.2c-9.5,0-13.6,8.7-14.4,15.2H1881.3z"/>
<path class="st0" d="M1902,414.6c0-5.3-0.1-9.7-0.4-13.9h8.3l0.5,8.5h0.2c3.4-6.1,10-9.9,17-9.7c7.1,0,18.2,4.3,18.2,21.9v30.8h-9.4
	v-29.7c0-8.3-3.1-15.2-11.9-15.2c-5.8,0.1-10.9,4-12.6,9.6c-0.5,1.4-0.7,2.9-0.6,4.4v31h-9.4L1902,414.6z"/>
<path class="st0" d="M1971.9,385.9v14.8h13.4v7.1h-13.4v27.8c0,6.4,1.8,10,7,10c1.8,0,3.7-0.2,5.4-0.6l0.4,7
	c-2.7,0.9-5.5,1.4-8.3,1.3c-4.4,0-7.9-1.4-10.1-3.9c-2.7-2.8-3.6-7.3-3.6-13.4v-28.1h-8v-7.1h8v-12.4L1971.9,385.9z"/>
<path class="st0" d="M2041.8,426c0,19-13.2,27.4-25.6,27.4c-13.9,0-24.7-10.2-24.7-26.5c0-17.2,11.3-27.4,25.6-27.4
	C2031.8,399.5,2041.8,410.3,2041.8,426z M2001,426.6c0,11.3,6.5,19.8,15.6,19.8c8.9,0,15.6-8.4,15.6-20c0-8.7-4.4-19.8-15.4-19.8
	S2001,416.8,2001,426.6L2001,426.6z"/>
<path class="st0" d="M788.8,388.4H767v-7.9h53.1v7.9h-21.9v63.9h-9.4V388.4z"/>
<path class="st0" d="M825.5,428.2c0.2,12.7,8.3,17.9,17.7,17.9c4.9,0.2,9.8-0.8,14.3-2.7l1.6,6.7c-3.3,1.5-8.9,3.2-17.1,3.2
	c-15.9,0-25.3-10.4-25.3-26s9.2-27.8,24.2-27.8c16.8,0,21.3,14.8,21.3,24.3c0,1.5-0.1,2.9-0.3,4.4L825.5,428.2z M852.9,421.5
	c0.1-6-2.5-15.2-13-15.2c-9.5,0-13.6,8.7-14.4,15.2H852.9z"/>
<path class="st0" d="M910.3,450.3c-4.7,2.1-9.7,3.1-14.8,3c-15.5,0-25.7-10.5-25.7-26.3s10.9-27.4,27.7-27.4c4.5-0.1,8.9,0.9,13,2.7
	l-2.1,7.2c-3.3-1.7-7.1-2.6-10.9-2.5c-11.8,0-18.2,8.7-18.2,19.5c0,11.9,7.7,19.3,17.9,19.3c4,0,7.9-0.9,11.5-2.5L910.3,450.3z"/>
<path class="st0" d="M921.3,414.6c0-5.3-0.1-9.7-0.4-13.9h8.3l0.5,8.5h0.2c3.4-6.1,10-9.9,17-9.7c7.1,0,18.2,4.3,18.2,21.9v30.8
	h-9.4v-29.7c0-8.3-3.1-15.2-11.9-15.2c-5.8,0.1-10.9,4-12.5,9.5c-0.5,1.4-0.7,2.9-0.6,4.4v31h-9.4L921.3,414.6z"/>
<path class="st0" d="M1026.9,426c0,19-13.2,27.4-25.7,27.4c-13.9,0-24.7-10.2-24.7-26.5c0-17.2,11.3-27.4,25.6-27.4
	C1016.9,399.5,1026.9,410.3,1026.9,426z M986.1,426.6c0,11.3,6.5,19.8,15.7,19.8c8.9,0,15.7-8.4,15.7-20c0-8.7-4.4-19.8-15.4-19.8
	S986.1,416.8,986.1,426.6L986.1,426.6z"/>
<path class="st0" d="M1038.8,376.6h9.4v75.6h-9.4L1038.8,376.6z"/>
<path class="st0" d="M1110.5,426c0,19-13.2,27.4-25.7,27.4c-13.9,0-24.7-10.2-24.7-26.5c0-17.2,11.3-27.4,25.6-27.4
	C1100.5,399.5,1110.5,410.3,1110.5,426z M1069.6,426.6c0,11.3,6.5,19.8,15.7,19.8c8.9,0,15.7-8.4,15.7-20c0-8.7-4.4-19.8-15.4-19.8
	S1069.6,416.8,1069.6,426.6L1069.6,426.6z"/>
<path class="st0" d="M1166.7,400.7c-0.2,3.7-0.4,7.9-0.4,14.2v29.9c0,11.8-2.3,19-7.3,23.5c-5,4.7-12.2,6.2-18.7,6.2
	c-6.2,0-13-1.5-17.1-4.3l2.3-7.1c4.6,2.7,9.8,4.1,15.1,4c9.6,0,16.6-5,16.6-18v-5.8h-0.2c-2.9,4.8-8.4,8.6-16.4,8.6
	c-12.8,0-21.9-10.9-21.9-25.1c0-17.5,11.4-27.4,23.2-27.4c8.9,0,13.8,4.7,16.1,8.9h0.2l0.4-7.8L1166.7,400.7z M1157,421
	c0.1-1.4-0.1-2.9-0.5-4.3c-1.7-5.4-6.3-9.9-13.1-9.9c-8.9,0-15.3,7.6-15.3,19.5c0,10.1,5.1,18.5,15.2,18.5c6,0,11.2-3.9,13-9.6
	c0.5-1.6,0.8-3.3,0.8-5L1157,421z"/>
<path class="st0" d="M1200.2,378.5l-13,15.2h-6.7l9.4-15.2H1200.2z M1181.2,452.2v-51.5h9.4v51.5H1181.2z"/>
<path class="st0" d="M1234.6,452.2l-0.8-6.5h-0.3c-3.7,4.9-9.6,7.8-15.8,7.7c-10.4,0-15.8-7.3-15.8-14.8c0-12.5,11.1-19.3,31-19.2
	v-1.1c0-4.3-1.2-11.9-11.7-11.9c-4.7,0-9.4,1.3-13.4,3.8l-2.1-6.2c5.1-3.1,11-4.7,16.9-4.6c15.8,0,19.6,10.8,19.6,21.1v19.2
	c-0.1,4.1,0.2,8.3,0.8,12.3L1234.6,452.2z M1233.2,425.9c-10.2-0.2-21.8,1.6-21.8,11.6c0,6.1,4,8.9,8.8,8.9
	c5.6,0.1,10.6-3.3,12.4-8.6c0.3-1,0.5-2,0.5-3L1233.2,425.9z"/>
<path class="st0" d="M205.9,440.9c5,3,10.8,4.6,16.6,4.7c9.5,0,15-5,15-12.2c0-6.7-3.8-10.5-13.5-14.3
	c-11.7-4.2-18.9-10.2-18.9-20.3c0-11.2,9.3-19.5,23.2-19.5c7.3,0,12.7,1.7,15.9,3.5l-2.5,7.6c-4.2-2.3-8.9-3.4-13.6-3.4
	c-9.8,0-13.5,5.9-13.5,10.8c0,6.7,4.4,10,14.3,13.8c12.1,4.7,18.3,10.5,18.3,21.1c0,11.1-8.2,20.7-25.1,20.7c-6.9,0-14.5-2-18.3-4.6
	L205.9,440.9z"/>
<path class="st0" d="M265.2,428.2c0.2,12.7,8.3,17.9,17.7,17.9c4.9,0.1,9.7-0.8,14.2-2.7l1.6,6.7c-3.3,1.5-8.9,3.2-17.1,3.2
	c-15.9,0-25.3-10.4-25.3-26s9.1-27.8,24.2-27.8c16.8,0,21.3,14.8,21.3,24.3c0,1.5-0.1,2.9-0.3,4.4L265.2,428.2z M292.7,421.5
	c0.1-6-2.5-15.2-13-15.2c-9.5,0-13.6,8.7-14.4,15.2H292.7z"/>
<path class="st0" d="M357.7,400.7c-0.2,3.7-0.4,7.9-0.4,14.2v29.9c0,11.8-2.3,19-7.3,23.5c-5,4.7-12.2,6.2-18.7,6.2
	c-6.2,0-13-1.5-17.1-4.3l2.3-7.1c4.6,2.7,9.8,4.1,15.1,4c9.6,0,16.6-5,16.6-18v-5.8h-0.2c-2.9,4.8-8.4,8.6-16.4,8.6
	c-12.8,0-21.9-10.9-21.9-25.1c0-17.5,11.4-27.4,23.2-27.4c8.9,0,13.8,4.7,16.1,8.9h0.2l0.4-7.8L357.7,400.7z M348,421
	c0.1-1.4-0.1-2.9-0.5-4.3c-1.7-5.4-6.3-9.9-13.1-9.9c-8.9,0-15.3,7.6-15.3,19.5c0,10.1,5.1,18.5,15.2,18.5c6,0,11.2-3.9,13-9.6
	c0.5-1.6,0.8-3.3,0.8-5L348,421z"/>
<path class="st0" d="M415.9,438.2c0,5.3,0.1,10,0.4,14.1h-8.3l-0.5-8.4h-0.2c-3.5,6-10,9.7-17,9.6c-8.1,0-17.8-4.5-17.8-22.6v-30.1
	h9.4v28.5c0,9.8,3,16.4,11.5,16.4c5.5-0.1,10.3-3.5,12.4-8.5c0.6-1.5,0.9-3.2,0.9-4.8v-31.6h9.4L415.9,438.2z"/>
<path class="st0" d="M431.5,416.8c0-6.1-0.1-11.3-0.4-16.1h8.2l0.3,10.1h0.4c2.3-6.9,8-11.3,14.3-11.3c0.9,0,1.8,0.1,2.7,0.3v8.8
	c-1-0.2-2.1-0.3-3.2-0.3c-6.6,0-11.3,5-12.6,12c-0.3,1.4-0.4,2.9-0.4,4.4v27.5h-9.3V416.8z"/>
<path class="st0" d="M477.1,386.2c0.1,3.2-2.2,5.8-6,5.8c-3.1,0-5.6-2.4-5.6-5.5c0-0.1,0-0.2,0-0.3c-0.1-3.2,2.4-5.8,5.6-5.9
	c0.1,0,0.2,0,0.3,0c3.1-0.1,5.7,2.2,5.8,5.3C477.1,385.9,477.1,386.1,477.1,386.2z M466.7,452.2v-51.5h9.4v51.5H466.7z"/>
<path class="st0" d="M536.1,376.6v62.3c0,4.6,0.1,9.8,0.4,13.3h-8.4l-0.4-8.9h-0.2c-2.9,5.8-9.2,10.1-17.6,10.1
	c-12.5,0-22-10.5-22-26.2c-0.1-17.1,10.5-27.7,23.1-27.7c7.9,0,13.2,3.7,15.5,7.9h0.2v-30.8H536.1z M526.8,421.6
	c0-1.3-0.1-2.6-0.4-3.9c-1.4-6.4-7-10.9-13.5-10.9c-9.7,0-15.4,8.5-15.4,19.9c0,10.4,5.1,19.1,15.2,19.1c6.6,0,12.4-4.7,13.7-11.2
	c0.3-1.3,0.5-2.7,0.4-4L526.8,421.6z"/>
<path class="st0" d="M580.2,452.2l-0.8-6.5h-0.3c-3.7,4.9-9.6,7.8-15.8,7.7c-10.4,0-15.8-7.3-15.8-14.8c0-12.5,11.1-19.3,31-19.2
	v-1.1c0-4.3-1.2-11.9-11.7-11.9c-4.7,0-9.4,1.3-13.4,3.8l-2.1-6.2c5.1-3.1,11-4.7,16.9-4.6c15.8,0,19.6,10.8,19.6,21.1v19.2
	c-0.1,4.1,0.2,8.3,0.8,12.3L580.2,452.2z M578.8,425.9c-10.2-0.2-21.8,1.6-21.8,11.6c0,6.1,4,8.9,8.8,8.9c5.6,0.1,10.6-3.4,12.5-8.6
	c0.3-1,0.5-2,0.5-3L578.8,425.9z"/>
<path class="st0" d="M647.5,376.6v62.3c0,4.6,0.1,9.8,0.4,13.3h-8.4l-0.4-8.9h-0.2c-2.9,5.8-9.2,10.1-17.6,10.1
	c-12.5,0-22-10.5-22-26.2c-0.1-17.1,10.5-27.7,23.1-27.7c7.9,0,13.2,3.7,15.5,7.9h0.2v-30.8H647.5z M638.1,421.6
	c0-1.3-0.1-2.6-0.4-3.9c-1.4-6.4-7-10.9-13.5-10.9c-9.7,0-15.4,8.5-15.4,19.9c0,10.4,5.1,19.1,15.2,19.1c6.6,0,12.4-4.7,13.7-11.2
	c0.3-1.3,0.5-2.7,0.4-4L638.1,421.6z"/>
</svg>
